<?xml version="1.0" encoding="UTF-8" standalone="no"?>
<!DOCTYPE svg PUBLIC "-//W3C//DTD SVG 1.1//EN" "http://www.w3.org/Graphics/SVG/1.1/DTD/svg11.dtd">
<svg width="100%" height="100%" viewBox="0 0 600 237" version="1.1" xmlns="http://www.w3.org/2000/svg" xmlns:xlink="http://www.w3.org/1999/xlink" xml:space="preserve" xmlns:serif="http://www.serif.com/" style="fill-rule:evenodd;clip-rule:evenodd;stroke-miterlimit:10;">
    <g id="diatonic_pattern">
        <path id="e" d="M25,7C32.175,7 38,12.825 38,20C38,27.175 32.175,33 25,33C17.825,33 12,27.175 12,20C12,12.825 17.825,7 25,7ZM125,7C132.175,7 138,12.825 138,20C138,27.175 132.175,33 125,33C117.825,33 112,27.175 112,20C112,12.825 117.825,7 125,7ZM175,7C182.175,7 188,12.825 188,20C188,27.175 182.175,33 175,33C167.825,33 162,27.175 162,20C162,12.825 167.825,7 175,7ZM275,7C282.175,7 288,12.825 288,20C288,27.175 282.175,33 275,33C267.825,33 262,27.175 262,20C262,12.825 267.825,7 275,7ZM375,7C382.175,7 388,12.825 388,20C388,27.175 382.175,33 375,33C367.825,33 362,27.175 362,20C362,12.825 367.825,7 375,7ZM425,7C432.175,7 438,12.825 438,20C438,27.175 432.175,33 425,33C417.825,33 412,27.175 412,20C412,12.825 417.825,7 425,7ZM525,7C532.175,7 538,12.825 538,20C538,27.175 532.175,33 525,33C517.825,33 512,27.175 512,20C512,12.825 517.825,7 525,7Z" style="fill:white;stroke:rgb(5,1,11);stroke-width:2px;"/>
        <path id="B" d="M25,46C32.175,46 38,51.825 38,59C38,66.175 32.175,72 25,72C17.825,72 12,66.175 12,59C12,51.825 17.825,46 25,46ZM525,46C532.175,46 538,51.825 538,59C538,66.175 532.175,72 525,72C517.825,72 512,66.175 512,59C512,51.825 517.825,46 525,46ZM425,46C432.175,46 438,51.825 438,59C438,66.175 432.175,72 425,72C417.825,72 412,66.175 412,59C412,51.825 417.825,46 425,46ZM375,46C382.175,46 388,51.825 388,59C388,66.175 382.175,72 375,72C367.825,72 362,66.175 362,59C362,51.825 367.825,46 375,46ZM275,46C282.175,46 288,51.825 288,59C288,66.175 282.175,72 275,72C267.825,72 262,66.175 262,59C262,51.825 267.825,46 275,46ZM175,46C182.175,46 188,51.825 188,59C188,66.175 182.175,72 175,72C167.825,72 162,66.175 162,59C162,51.825 167.825,46 175,46ZM75,46C82.175,46 88,51.825 88,59C88,66.175 82.175,72 75,72C67.825,72 62,66.175 62,59C62,51.825 67.825,46 75,46Z" style="fill:white;stroke:rgb(5,1,11);stroke-width:2px;"/>
        <path id="G" d="M125,85C132.175,85 138,90.825 138,98C138,105.175 132.175,111 125,111C117.825,111 112,105.175 112,98C112,90.825 117.825,85 125,85ZM25,85C32.175,85 38,90.825 38,98C38,105.175 32.175,111 25,111C17.825,111 12,105.175 12,98C12,90.825 17.825,85 25,85ZM225,85C232.175,85 238,90.825 238,98C238,105.175 232.175,111 225,111C217.825,111 212,105.175 212,98C212,90.825 217.825,85 225,85ZM375,85C382.175,85 388,90.825 388,98C388,105.175 382.175,111 375,111C367.825,111 362,105.175 362,98C362,90.825 367.825,85 375,85ZM475,85C482.175,85 488,90.825 488,98C488,105.175 482.175,111 475,111C467.825,111 462,105.175 462,98C462,90.825 467.825,85 475,85ZM575,85C582.175,85 588,90.825 588,98C588,105.175 582.175,111 575,111C567.825,111 562,105.175 562,98C562,90.825 567.825,85 575,85ZM275,85C282.175,85 288,90.825 288,98C288,105.175 282.175,111 275,111C267.825,111 262,105.175 262,98C262,90.825 267.825,85 275,85Z" style="fill:white;stroke:rgb(5,1,11);stroke-width:2px;"/>
        <path id="D" d="M24,124C31.175,124 37,129.825 37,137C37,144.175 31.175,150 24,150C16.825,150 11,144.175 11,137C11,129.825 16.825,124 24,124ZM124,124C131.175,124 137,129.825 137,137C137,144.175 131.175,150 124,150C116.825,150 111,144.175 111,137C111,129.825 116.825,124 124,124ZM224,124C231.175,124 237,129.825 237,137C237,144.175 231.175,150 224,150C216.825,150 211,144.175 211,137C211,129.825 216.825,124 224,124ZM274,124C281.175,124 287,129.825 287,137C287,144.175 281.175,150 274,150C266.825,150 261,144.175 261,137C261,129.825 266.825,124 274,124ZM374,124C381.175,124 387,129.825 387,137C387,144.175 381.175,150 374,150C366.825,150 361,144.175 361,137C361,129.825 366.825,124 374,124ZM474,124C481.175,124 487,129.825 487,137C487,144.175 481.175,150 474,150C466.825,150 461,144.175 461,137C461,129.825 466.825,124 474,124ZM524,124C531.175,124 537,129.825 537,137C537,144.175 531.175,150 524,150C516.825,150 511,144.175 511,137C511,129.825 516.825,124 524,124Z" style="fill:white;stroke:rgb(5,1,11);stroke-width:2px;"/>
        <path id="A" d="M524,163C531.175,163 537,168.825 537,176C537,183.175 531.175,189 524,189C516.825,189 511,183.175 511,176C511,168.825 516.825,163 524,163ZM474,163C481.175,163 487,168.825 487,176C487,183.175 481.175,189 474,189C466.825,189 461,183.175 461,176C461,168.825 466.825,163 474,163ZM374,163C381.175,163 387,168.825 387,176C387,183.175 381.175,189 374,189C366.825,189 361,183.175 361,176C361,168.825 366.825,163 374,163ZM274,163C281.175,163 287,168.825 287,176C287,183.175 281.175,189 274,189C266.825,189 261,183.175 261,176C261,168.825 266.825,163 274,163ZM174,163C181.175,163 187,168.825 187,176C187,183.175 181.175,189 174,189C166.825,189 161,183.175 161,176C161,168.825 166.825,163 174,163ZM124,163C131.175,163 137,168.825 137,176C137,183.175 131.175,189 124,189C116.825,189 111,183.175 111,176C111,168.825 116.825,163 124,163ZM24,163C31.175,163 37,168.825 37,176C37,183.175 31.175,189 24,189C16.825,189 11,183.175 11,176C11,168.825 16.825,163 24,163Z" style="fill:white;stroke:rgb(5,1,11);stroke-width:2px;"/>
        <path id="E" d="M24,202C31.175,202 37,207.825 37,215C37,222.175 31.175,228 24,228C16.825,228 11,222.175 11,215C11,207.825 16.825,202 24,202ZM124,202C131.175,202 137,207.825 137,215C137,222.175 131.175,228 124,228C116.825,228 111,222.175 111,215C111,207.825 116.825,202 124,202ZM174,202C181.175,202 187,207.825 187,215C187,222.175 181.175,228 174,228C166.825,228 161,222.175 161,215C161,207.825 166.825,202 174,202ZM274,202C281.175,202 287,207.825 287,215C287,222.175 281.175,228 274,228C266.825,228 261,222.175 261,215C261,207.825 266.825,202 274,202ZM374,202C381.175,202 387,207.825 387,215C387,222.175 381.175,228 374,228C366.825,228 361,222.175 361,215C361,207.825 366.825,202 374,202ZM424,202C431.175,202 437,207.825 437,215C437,222.175 431.175,228 424,228C416.825,228 411,222.175 411,215C411,207.825 416.825,202 424,202ZM524,202C531.175,202 537,207.825 537,215C537,222.175 531.175,228 524,228C516.825,228 511,222.175 511,215C511,207.825 516.825,202 524,202Z" style="fill:white;stroke:rgb(5,1,11);stroke-width:2px;"/>
        <path id="B1" serif:id="B" d="M524,241C531.175,241 537,246.825 537,254C537,261.175 531.175,267 524,267C516.825,267 511,261.175 511,254C511,246.825 516.825,241 524,241ZM424,241C431.175,241 437,246.825 437,254C437,261.175 431.175,267 424,267C416.825,267 411,261.175 411,254C411,246.825 416.825,241 424,241ZM374,241C381.175,241 387,246.825 387,254C387,261.175 381.175,267 374,267C366.825,267 361,261.175 361,254C361,246.825 366.825,241 374,241ZM274,241C281.175,241 287,246.825 287,254C287,261.175 281.175,267 274,267C266.825,267 261,261.175 261,254C261,246.825 266.825,241 274,241ZM174,241C181.175,241 187,246.825 187,254C187,261.175 181.175,267 174,267C166.825,267 161,261.175 161,254C161,246.825 166.825,241 174,241ZM74,241C81.175,241 87,246.825 87,254C87,261.175 81.175,267 74,267C66.825,267 61,261.175 61,254C61,246.825 66.825,241 74,241ZM24,241C31.175,241 37,246.825 37,254C37,261.175 31.175,267 24,267C16.825,267 11,261.175 11,254C11,246.825 16.825,241 24,241Z" style="fill:white;stroke:rgb(5,1,11);stroke-width:2px;"/>
    </g>
</svg>
