<?xml version="1.0" encoding="UTF-8" standalone="no"?>
<!DOCTYPE svg PUBLIC "-//W3C//DTD SVG 1.1//EN" "http://www.w3.org/Graphics/SVG/1.1/DTD/svg11.dtd">
<svg width="100%" height="100%" viewBox="0 0 1250 39" version="1.1" xmlns="http://www.w3.org/2000/svg" xmlns:xlink="http://www.w3.org/1999/xlink" xml:space="preserve" xmlns:serif="http://www.serif.com/" style="fill-rule:evenodd;clip-rule:evenodd;stroke-linejoin:round;stroke-miterlimit:2;">
    <g transform="matrix(1,0,0,0.739692,0,5.21119)">
        <g transform="matrix(1,0,0,1,3.84117,-0.340832)">
            <g transform="matrix(27.9209,0,0,27.9209,30.5283,30)">
            </g>
            <text x="15px" y="30px" style="font-family:'ArialMT', 'Arial', sans-serif;font-size:27.921px;">0</text>
        </g>
        <g transform="matrix(1,0,0,1,53.8412,-0.340832)">
            <g transform="matrix(27.9209,0,0,27.9209,30.5283,30)">
            </g>
            <text x="15px" y="30px" style="font-family:'ArialMT', 'Arial', sans-serif;font-size:27.921px;">1</text>
        </g>
        <g transform="matrix(1,0,0,1,104.598,-0.340832)">
            <g transform="matrix(27.9209,0,0,27.9209,30.5283,30)">
            </g>
            <text x="15px" y="30px" style="font-family:'ArialMT', 'Arial', sans-serif;font-size:27.921px;">2</text>
        </g>
        <g transform="matrix(1,0,0,1,154.157,-0.340832)">
            <g transform="matrix(27.9209,0,0,27.9209,30.5283,30)">
            </g>
            <text x="15px" y="30px" style="font-family:'ArialMT', 'Arial', sans-serif;font-size:27.921px;">3</text>
        </g>
        <g transform="matrix(1,0,0,1,203.828,-0.354465)">
            <g transform="matrix(27.9209,0,0,27.9209,30.5283,30)">
            </g>
            <text x="15px" y="30px" style="font-family:'ArialMT', 'Arial', sans-serif;font-size:27.921px;">4</text>
        </g>
        <g transform="matrix(1,0,0,1,252.733,-0.354465)">
            <g transform="matrix(27.9209,0,0,27.9209,30.5283,30)">
            </g>
            <text x="15px" y="30px" style="font-family:'ArialMT', 'Arial', sans-serif;font-size:27.921px;">5</text>
        </g>
        <g transform="matrix(1,0,0,1,303.841,-0.354465)">
            <g transform="matrix(27.9209,0,0,27.9209,30.5283,30)">
            </g>
            <text x="15px" y="30px" style="font-family:'ArialMT', 'Arial', sans-serif;font-size:27.921px;">6</text>
        </g>
        <g transform="matrix(1,0,0,1,353.95,-0.354465)">
            <g transform="matrix(27.9209,0,0,27.9209,30.5283,30)">
            </g>
            <text x="15px" y="30px" style="font-family:'ArialMT', 'Arial', sans-serif;font-size:27.921px;">7</text>
        </g>
        <g transform="matrix(1,0,0,1,403.678,-0.354465)">
            <g transform="matrix(27.9209,0,0,27.9209,30.5283,30)">
            </g>
            <text x="15px" y="30px" style="font-family:'ArialMT', 'Arial', sans-serif;font-size:27.921px;">8</text>
        </g>
        <g transform="matrix(1,0,0,1,453.868,0.0681663)">
            <g transform="matrix(27.9209,0,0,27.9209,30.5283,30)">
            </g>
            <text x="15px" y="30px" style="font-family:'ArialMT', 'Arial', sans-serif;font-size:27.921px;">9</text>
        </g>
        <g transform="matrix(1,0,0,1,493.62,0.0681663)">
            <g transform="matrix(27.9209,0,0,27.9209,46.0566,30)">
            </g>
            <text x="15px" y="30px" style="font-family:'ArialMT', 'Arial', sans-serif;font-size:27.921px;">10</text>
        </g>
        <g transform="matrix(1,0,0,1,543.995,-0.354465)">
            <g transform="matrix(27.9209,0,0,27.9209,43.9843,30)">
            </g>
            <text x="15px" y="30px" style="font-family:'ArialMT', 'Arial', sans-serif;font-size:27.921px;">1<tspan x="28.456px " y="30px ">1</tspan></text>
        </g>
        <g transform="matrix(1,0,0,1,593.688,0.0681663)">
            <g transform="matrix(27.9209,0,0,27.9209,46.0566,30)">
            </g>
            <text x="15px" y="30px" style="font-family:'ArialMT', 'Arial', sans-serif;font-size:27.921px;">12</text>
        </g>
        <g transform="matrix(1,0,0,1,643.688,-0.354465)">
            <g transform="matrix(27.9209,0,0,27.9209,46.0566,30)">
            </g>
            <text x="15px" y="30px" style="font-family:'ArialMT', 'Arial', sans-serif;font-size:27.921px;">13</text>
        </g>
        <g transform="matrix(1,0,0,1,693.626,-0.354465)">
            <g transform="matrix(27.9209,0,0,27.9209,46.0566,30)">
            </g>
            <text x="15px" y="30px" style="font-family:'ArialMT', 'Arial', sans-serif;font-size:27.921px;">14</text>
        </g>
        <g transform="matrix(1,0,0,1,741.96,-0.354465)">
            <g transform="matrix(27.9209,0,0,27.9209,46.0566,30)">
            </g>
            <text x="15px" y="30px" style="font-family:'ArialMT', 'Arial', sans-serif;font-size:27.921px;">15</text>
        </g>
        <g transform="matrix(1,0,0,1,793.511,-0.354465)">
            <g transform="matrix(27.9209,0,0,27.9209,46.0566,30)">
            </g>
            <text x="15px" y="30px" style="font-family:'ArialMT', 'Arial', sans-serif;font-size:27.921px;">16</text>
        </g>
        <g transform="matrix(1,0,0,1,841.96,-0.354465)">
            <g transform="matrix(27.9209,0,0,27.9209,46.0566,30)">
            </g>
            <text x="15px" y="30px" style="font-family:'ArialMT', 'Arial', sans-serif;font-size:27.921px;">17</text>
        </g>
        <g transform="matrix(1,0,0,1,893.586,-0.354465)">
            <g transform="matrix(27.9209,0,0,27.9209,46.0566,30)">
            </g>
            <text x="15px" y="30px" style="font-family:'ArialMT', 'Arial', sans-serif;font-size:27.921px;">18</text>
        </g>
        <g transform="matrix(1,0,0,1,943.565,0.0681663)">
            <g transform="matrix(27.9209,0,0,27.9209,46.0566,30)">
            </g>
            <text x="15px" y="30px" style="font-family:'ArialMT', 'Arial', sans-serif;font-size:27.921px;">19</text>
        </g>
        <g transform="matrix(1,0,0,1,993.565,0.0681663)">
            <g transform="matrix(27.9209,0,0,27.9209,46.0566,30)">
            </g>
            <text x="15px" y="30px" style="font-family:'ArialMT', 'Arial', sans-serif;font-size:27.921px;">20</text>
        </g>
        <g transform="matrix(1,0,0,1,1044.16,-0.354465)">
            <g transform="matrix(27.9209,0,0,27.9209,46.0566,30)">
            </g>
            <text x="15px" y="30px" style="font-family:'ArialMT', 'Arial', sans-serif;font-size:27.921px;">21</text>
        </g>
        <g transform="matrix(1,0,0,1,1094.16,-0.354465)">
            <g transform="matrix(27.9209,0,0,27.9209,46.0566,30)">
            </g>
            <text x="15px" y="30px" style="font-family:'ArialMT', 'Arial', sans-serif;font-size:27.921px;">22</text>
        </g>
        <g transform="matrix(1,0,0,1,1144.16,-4.44089e-15)">
            <g transform="matrix(27.9209,0,0,27.9209,46.0566,30)">
            </g>
            <text x="15px" y="30px" style="font-family:'ArialMT', 'Arial', sans-serif;font-size:27.921px;">23</text>
        </g>
        <g transform="matrix(1,0,0,1,1194.16,0.0681663)">
            <g transform="matrix(27.9209,0,0,27.9209,46.0566,30)">
            </g>
            <text x="15px" y="30px" style="font-family:'ArialMT', 'Arial', sans-serif;font-size:27.921px;">24</text>
        </g>
    </g>
</svg>
