<?xml version="1.0" encoding="UTF-8" standalone="no"?>
<!DOCTYPE svg PUBLIC "-//W3C//DTD SVG 1.1//EN" "http://www.w3.org/Graphics/SVG/1.1/DTD/svg11.dtd">
<svg width="100%" height="100%" viewBox="0 0 245 30" version="1.1" xmlns="http://www.w3.org/2000/svg" xmlns:xlink="http://www.w3.org/1999/xlink" xml:space="preserve" xmlns:serif="http://www.serif.com/" style="fill-rule:evenodd;clip-rule:evenodd;stroke-linejoin:round;stroke-miterlimit:2;">
    <path d="M33.68,15.616L45.68,5.616C45.838,5.484 46.06,5.463 46.24,5.561C46.42,5.66 46.522,5.858 46.496,6.062L45.566,13.5L77,13.5C77.276,13.5 77.5,13.724 77.5,14L77.5,18C77.5,18.276 77.276,18.5 77,18.5L45.577,18.5L46.495,24.929C46.524,25.129 46.429,25.327 46.255,25.43C46.081,25.533 45.862,25.521 45.7,25.4L33.7,16.4C33.578,16.308 33.504,16.166 33.5,16.013C33.496,15.86 33.562,15.714 33.68,15.616ZM34,16L46,25L45,18L77,18L77,14L45,14L46,6L34,16Z" style="fill:rgb(156,0,255);fill-opacity:0.22;"/>
    <path d="M34,16L46,6L45,14L77,14L77,18L45,18L46,25L34,16Z" style="fill:rgb(80,73,115);fill-opacity:0.8;"/>
    <g transform="matrix(1.125,0,0,0.792707,-9,3.92033)">
        <g transform="matrix(1.28671,0,0,1.82609,-23.5105,-4.95652)">
            <path d="M97.848,10.664L96.801,10.664C96.693,10.664 96.591,10.613 96.526,10.527C96.46,10.441 96.439,10.329 96.468,10.225C96.641,9.606 96.926,9.098 97.316,8.7C97.316,8.699 97.317,8.698 97.318,8.697C97.938,8.077 98.834,7.752 100.018,7.752C100.785,7.752 101.433,7.91 101.965,8.214C102.568,8.56 102.816,9.197 102.611,10.156L101.984,13.085C101.942,13.285 101.896,13.526 101.847,13.809C101.831,13.908 101.829,14.025 101.829,14.06C101.839,14.07 101.854,14.076 101.87,14.084C102.008,14.156 102.081,14.311 102.049,14.462C102.048,14.466 102.047,14.469 102.047,14.473L102.004,14.696C101.951,14.978 101.664,14.982 101.664,14.982L99.848,14.982C99.681,14.982 99.538,14.863 99.508,14.699C99.501,14.663 99.496,14.628 99.491,14.593C99.359,14.678 99.222,14.758 99.082,14.831L99.079,14.833C98.623,15.065 98.141,15.181 97.633,15.181C96.942,15.181 96.419,14.97 96.053,14.576C95.678,14.172 95.544,13.606 95.701,12.865C95.893,11.971 96.378,11.326 97.152,10.926C97.347,10.825 97.579,10.737 97.848,10.664ZM99.443,10.752L98.863,10.822C98.199,10.904 97.682,11.041 97.311,11.232C96.631,11.584 96.207,12.152 96.039,12.937C95.91,13.543 95.999,14.011 96.306,14.341C96.612,14.671 97.055,14.836 97.633,14.836C98.086,14.836 98.516,14.732 98.922,14.525C99.258,14.35 99.568,14.137 99.854,13.887C99.834,14.031 99.822,14.16 99.818,14.273C99.814,14.387 99.824,14.508 99.848,14.637L101.664,14.637L101.711,14.391C101.613,14.34 101.546,14.275 101.509,14.197C101.472,14.119 101.471,13.971 101.506,13.752C101.557,13.463 101.604,13.217 101.646,13.014L102.273,10.084C102.437,9.314 102.277,8.791 101.793,8.514C101.309,8.236 100.717,8.098 100.018,8.098C98.943,8.098 98.125,8.379 97.562,8.941C97.211,9.301 96.957,9.76 96.801,10.318L98.412,10.318C98.506,10.072 98.625,9.877 98.77,9.732C98.977,9.537 99.277,9.439 99.672,9.439C100.023,9.439 100.279,9.489 100.439,9.589C100.6,9.688 100.652,9.869 100.598,10.131C100.551,10.346 100.398,10.504 100.141,10.605C99.996,10.664 99.764,10.713 99.443,10.752ZM100.293,11.531L100.164,12.152C100.031,12.711 99.791,13.096 99.443,13.307C99.096,13.518 98.742,13.623 98.383,13.623C98.156,13.623 97.978,13.56 97.847,13.433C97.716,13.306 97.682,13.1 97.744,12.814C97.811,12.494 97.988,12.258 98.277,12.105C98.449,12.016 98.719,11.939 99.086,11.877L99.473,11.807C99.668,11.771 99.824,11.733 99.941,11.692C100.059,11.651 100.176,11.598 100.293,11.531ZM99.825,12.086C99.739,12.107 99.642,12.127 99.534,12.146L99.148,12.217C99.146,12.217 99.145,12.217 99.144,12.217C98.824,12.272 98.588,12.333 98.438,12.411C98.245,12.513 98.127,12.671 98.082,12.885C98.082,12.886 98.082,12.887 98.082,12.888C98.064,12.966 98.056,13.035 98.06,13.096C98.063,13.132 98.066,13.164 98.087,13.185C98.158,13.254 98.259,13.278 98.383,13.278C98.682,13.278 98.975,13.187 99.264,13.011C99.541,12.843 99.718,12.528 99.825,12.086ZM98.71,10.494C98.746,10.489 98.783,10.484 98.821,10.479L99.402,10.409C99.681,10.375 99.885,10.336 100.011,10.285L100.014,10.284C100.144,10.233 100.236,10.167 100.26,10.059C100.269,10.012 100.275,9.971 100.273,9.933C100.272,9.912 100.273,9.892 100.257,9.882C100.136,9.807 99.939,9.785 99.672,9.785C99.385,9.785 99.162,9.84 99.008,9.982C98.897,10.096 98.808,10.25 98.735,10.441C98.728,10.46 98.719,10.477 98.71,10.494ZM94.72,8.265C94.747,8.244 94.772,8.225 94.797,8.208C95.225,7.906 95.726,7.752 96.303,7.752C96.346,7.752 96.383,7.754 96.413,7.757C96.433,7.758 96.475,7.761 96.539,7.764C96.639,7.77 96.733,7.819 96.794,7.9C96.855,7.98 96.878,8.082 96.857,8.181L96.494,9.892C96.457,10.066 96.294,10.184 96.117,10.163C96.024,10.153 95.94,10.145 95.864,10.142C95.789,10.138 95.728,10.136 95.682,10.136C95.138,10.136 94.728,10.298 94.466,10.652C94.308,10.869 94.188,11.206 94.092,11.656L93.447,14.708C93.414,14.868 93.273,14.982 93.109,14.982L91.428,14.982C91.324,14.982 91.225,14.935 91.159,14.854C91.094,14.773 91.068,14.667 91.09,14.565L92.443,8.178C92.477,8.019 92.618,7.905 92.781,7.905L94.375,7.905C94.479,7.905 94.578,7.952 94.643,8.032C94.697,8.098 94.724,8.181 94.72,8.265ZM96.52,8.109C96.449,8.105 96.403,8.103 96.382,8.101C96.36,8.099 96.334,8.098 96.303,8.098C95.803,8.098 95.367,8.229 94.996,8.49C94.773,8.646 94.488,8.937 94.141,9.363L94.375,8.25L92.781,8.25L91.428,14.637L93.109,14.637L93.754,11.584C93.863,11.072 94.008,10.693 94.188,10.447C94.512,10.01 95.01,9.791 95.682,9.791C95.732,9.791 95.799,9.793 95.881,9.797C95.963,9.801 96.055,9.809 96.156,9.82L96.52,8.109ZM106.518,14.656C106.107,14.891 105.63,15.011 105.086,15.011C104.128,15.011 103.442,14.66 103.013,13.987C102.605,13.347 102.498,12.482 102.732,11.39C102.945,10.374 103.381,9.522 104.035,8.83C104.716,8.111 105.539,7.752 106.504,7.752C106.881,7.752 107.196,7.814 107.449,7.93C107.632,8.012 107.794,8.122 107.936,8.259L107.953,8.179C107.987,8.019 108.128,7.905 108.291,7.905L109.914,7.905C110.018,7.905 110.117,7.952 110.183,8.033C110.248,8.114 110.274,8.22 110.252,8.322L108.963,14.379C108.776,15.275 108.475,15.946 108.076,16.4C107.391,17.183 106.319,17.595 104.846,17.595C103.941,17.595 103.245,17.405 102.749,17.05C102.199,16.657 101.958,16.074 102.054,15.292C102.075,15.119 102.222,14.989 102.396,14.989L104.213,14.989C104.398,14.989 104.551,15.135 104.558,15.32C104.561,15.406 104.56,15.474 104.598,15.512C104.599,15.513 104.6,15.514 104.601,15.515C104.638,15.553 104.697,15.574 104.769,15.593C104.888,15.625 105.037,15.639 105.215,15.639C105.687,15.639 106.043,15.495 106.27,15.179L106.271,15.178C106.363,15.052 106.444,14.877 106.518,14.656ZM107.307,8.244C107.092,8.146 106.824,8.098 106.504,8.098C105.637,8.098 104.897,8.421 104.286,9.067C103.675,9.714 103.27,10.512 103.07,11.461C102.859,12.445 102.938,13.226 103.305,13.802C103.672,14.378 104.266,14.666 105.086,14.666C105.617,14.666 106.076,14.539 106.463,14.285C106.678,14.148 106.895,13.943 107.113,13.67L107.025,14.08C106.896,14.689 106.738,15.123 106.551,15.381C106.262,15.783 105.816,15.984 105.215,15.984C104.789,15.984 104.502,15.908 104.354,15.756C104.268,15.67 104.221,15.529 104.213,15.334L102.396,15.334C102.318,15.971 102.503,16.449 102.95,16.77C103.397,17.09 104.029,17.25 104.846,17.25C106.197,17.25 107.188,16.891 107.816,16.172C108.184,15.754 108.453,15.133 108.625,14.309L109.914,8.25L108.291,8.25L108.098,9.17C107.941,8.721 107.678,8.412 107.307,8.244ZM107.605,11.414C107.469,12.059 107.234,12.528 106.902,12.823C106.57,13.118 106.209,13.266 105.818,13.266C105.232,13.266 104.885,12.996 104.775,12.457C104.709,12.168 104.715,11.838 104.793,11.467C104.887,11.037 105.023,10.676 105.203,10.383C105.543,9.832 106.006,9.557 106.592,9.557C107.021,9.557 107.33,9.715 107.518,10.031C107.705,10.348 107.734,10.809 107.605,11.414ZM107.268,11.342C107.373,10.846 107.374,10.467 107.22,10.207C107.094,9.995 106.88,9.902 106.592,9.902C106.128,9.902 105.766,10.128 105.497,10.564C105.336,10.827 105.215,11.153 105.131,11.539C105.065,11.854 105.056,12.134 105.112,12.38C105.113,12.383 105.113,12.385 105.114,12.388C105.15,12.565 105.216,12.702 105.33,12.79C105.45,12.884 105.615,12.92 105.818,12.92C106.127,12.92 106.41,12.798 106.673,12.565C106.96,12.31 107.15,11.899 107.268,11.342ZM89.879,5.862C90.53,6.092 91.007,6.516 91.31,7.131C91.544,7.607 91.663,8.122 91.665,8.676C91.667,9.201 91.618,9.702 91.52,10.177L91.519,10.18C91.261,11.384 90.8,12.404 90.14,13.24C89.218,14.403 88.048,14.982 86.635,14.982L82.914,14.982C82.81,14.982 82.711,14.935 82.646,14.854C82.58,14.773 82.555,14.667 82.576,14.565L84.41,5.928C84.444,5.769 84.585,5.655 84.748,5.655L88.469,5.655C88.47,5.655 88.472,5.655 88.474,5.655C89.05,5.663 89.518,5.735 89.879,5.862ZM89.764,6.188C89.432,6.07 89,6.008 88.469,6L84.748,6L82.914,14.637L86.635,14.637C87.939,14.637 89.018,14.1 89.869,13.025C90.498,12.229 90.936,11.256 91.182,10.107C91.275,9.654 91.321,9.178 91.319,8.678C91.317,8.178 91.211,7.713 91,7.283C90.738,6.752 90.326,6.387 89.764,6.188ZM86.178,7.5L87.842,7.5C88.662,7.5 89.16,7.735 89.336,8.206C89.512,8.677 89.506,9.352 89.318,10.23C89.186,10.867 88.979,11.416 88.697,11.877C88.182,12.717 87.498,13.137 86.646,13.137L84.982,13.137L86.178,7.5ZM86.458,7.845C86.458,7.845 85.409,12.791 85.409,12.791L86.646,12.791C87.379,12.791 87.959,12.419 88.403,11.697C88.665,11.267 88.856,10.754 88.98,10.16L88.981,10.158C89.15,9.363 89.171,8.753 89.012,8.327C88.878,7.966 88.47,7.845 87.842,7.845L86.458,7.845Z" style="fill:rgb(156,0,255);fill-opacity:0.22;"/>
        </g>
        <g transform="matrix(1.28671,0,0,1.82609,-23.5105,-4.95652)">
            <g transform="matrix(12,0,0,12,109.34,14.6367)">
            </g>
            <text x="82px" y="14.637px" style="font-family:'Helvetica-BoldOblique', 'Helvetica';font-weight:700;font-style:italic;font-size:12px;fill:rgb(80,73,115);fill-opacity:0.8;">Drag</text>
        </g>
    </g>
    <g transform="matrix(1.07143,0,0,0.98,-10.6429,2.78)">
        <g transform="matrix(0.933333,0,0,1.02041,9,-0.0306122)">
            <path d="M182.108,1.071C182.183,1.026 182.271,1 182.364,1L189.36,1C189.511,1 189.654,1.068 189.749,1.186C189.844,1.303 189.881,1.457 189.849,1.605L189.521,3.134C189.472,3.365 189.268,3.529 189.032,3.529L186.853,3.529L185.432,10.24C185.383,10.471 185.179,10.637 184.942,10.637L183.126,10.637C182.975,10.637 182.832,10.569 182.738,10.452C182.643,10.334 182.606,10.181 182.637,10.033L184.015,3.529L182.036,3.529C181.95,3.529 181.866,3.507 181.793,3.466C181.721,3.507 181.637,3.529 181.55,3.529L177.625,3.529L177.415,4.516L180.589,4.516C180.74,4.516 180.882,4.584 180.977,4.701C181.072,4.818 181.109,4.971 181.078,5.119L180.762,6.619C180.713,6.85 180.509,7.016 180.272,7.016L176.887,7.016L176.203,10.24C176.154,10.471 175.95,10.637 175.714,10.637L173.921,10.637C173.77,10.637 173.627,10.569 173.532,10.451C173.437,10.334 173.4,10.181 173.432,10.033L175.26,1.408C175.309,1.177 175.513,1.012 175.749,1.012L181.872,1.012C181.955,1.012 182.036,1.032 182.108,1.071ZM189.36,1.5L182.364,1.5L182.036,3.029L184.632,3.029L183.126,10.137L184.942,10.137L186.448,3.029L189.032,3.029L189.36,1.5ZM175.749,1.512L173.921,10.137L175.714,10.137L176.481,6.516L180.272,6.516L180.589,5.016L176.798,5.016L177.22,3.029L181.55,3.029L181.872,1.512L175.749,1.512ZM196.28,5.113C196.489,4.79 196.737,4.487 197.024,4.203C197.799,3.437 198.804,3.045 200.048,3.045C201.367,3.045 202.244,3.494 202.718,4.307C203.171,5.083 203.299,6 203.074,7.059C202.854,8.095 202.367,8.982 201.613,9.718C200.841,10.472 199.838,10.859 198.595,10.859C197.277,10.859 196.4,10.416 195.924,9.616C195.468,8.85 195.339,7.93 195.569,6.851C195.68,6.323 195.865,5.831 196.122,5.376C196.033,5.452 195.918,5.498 195.794,5.498C195.794,5.498 195.161,5.498 195.161,5.498L194.529,8.457C194.56,8.458 194.591,8.459 194.622,8.459C194.667,8.459 194.715,8.458 194.766,8.456C194.817,8.455 194.87,8.452 194.923,8.448C195.079,8.438 195.232,8.502 195.334,8.62C195.437,8.739 195.478,8.899 195.445,9.053L195.175,10.301C195.127,10.524 194.933,10.687 194.705,10.695L193.907,10.724C192.886,10.76 192.253,10.503 191.961,10.115C191.75,9.836 191.657,9.411 191.777,8.829L191.778,8.825C191.778,8.825 192.487,5.498 192.487,5.498L192.214,5.498C192.063,5.498 191.92,5.43 191.825,5.313C191.73,5.196 191.693,5.042 191.725,4.894L191.977,3.705C192.026,3.474 192.23,3.309 192.466,3.309L192.952,3.309L193.248,1.923C193.298,1.692 193.501,1.527 193.737,1.527L195.39,1.527C195.541,1.527 195.683,1.596 195.778,1.713C195.873,1.83 195.91,1.984 195.879,2.132L195.627,3.309L196.046,3.309C196.197,3.309 196.339,3.377 196.434,3.494C196.529,3.611 196.566,3.765 196.535,3.912L196.283,5.102C196.282,5.106 196.281,5.109 196.28,5.113ZM192.214,4.998L193.104,4.998L192.267,8.93C192.185,9.328 192.216,9.623 192.36,9.814C192.587,10.115 193.097,10.252 193.89,10.225L194.687,10.195L194.956,8.947C194.897,8.951 194.84,8.954 194.783,8.956C194.727,8.958 194.673,8.959 194.622,8.959C194.282,8.959 194.086,8.927 194.033,8.862C193.98,8.798 193.981,8.635 194.036,8.373L194.757,4.998L195.794,4.998L196.046,3.809L195.009,3.809L195.39,2.027L193.737,2.027L193.356,3.809L192.466,3.809L192.214,4.998ZM198.595,10.359C199.692,10.359 200.582,10.026 201.264,9.36C201.945,8.694 202.386,7.893 202.585,6.955C202.78,6.033 202.681,5.234 202.286,4.559C201.892,3.883 201.146,3.545 200.048,3.545C198.95,3.545 198.06,3.883 197.376,4.559C196.692,5.234 196.253,6.033 196.058,6.955C195.858,7.893 195.957,8.694 196.354,9.36C196.75,10.026 197.497,10.359 198.595,10.359ZM200.833,6.955C200.696,7.596 200.46,8.09 200.124,8.438C199.788,8.785 199.376,8.959 198.888,8.959C198.399,8.959 198.061,8.785 197.871,8.438C197.682,8.09 197.655,7.596 197.792,6.955C197.929,6.314 198.165,5.821 198.501,5.476C198.837,5.13 199.249,4.957 199.737,4.957C200.226,4.957 200.564,5.13 200.754,5.476C200.943,5.821 200.97,6.314 200.833,6.955ZM200.344,6.851C200.449,6.36 200.461,5.981 200.315,5.716C200.21,5.524 200.008,5.457 199.737,5.457C199.391,5.457 199.098,5.579 198.86,5.824C198.58,6.111 198.395,6.527 198.281,7.059C198.176,7.551 198.165,7.931 198.31,8.198C198.415,8.391 198.617,8.459 198.888,8.459C199.234,8.459 199.526,8.337 199.764,8.09C200.044,7.801 200.23,7.384 200.344,6.851ZM160.421,1L162.226,1C162.376,1 162.519,1.068 162.614,1.185C162.709,1.303 162.746,1.456 162.715,1.604L161.337,8.084L164.997,8.084C165.148,8.084 165.291,8.152 165.385,8.269C165.48,8.386 165.517,8.54 165.486,8.687L165.158,10.24C165.109,10.471 164.905,10.637 164.669,10.637L158.587,10.637C158.436,10.637 158.293,10.569 158.198,10.451C158.103,10.334 158.066,10.18 158.098,10.033L159.932,1.396C159.981,1.165 160.185,1 160.421,1ZM160.421,1.5L158.587,10.137L164.669,10.137L164.997,8.584L160.72,8.584L162.226,1.5L160.421,1.5ZM173.81,3.529L169.645,3.529L169.469,4.363L173.048,4.363C173.199,4.363 173.342,4.432 173.437,4.549C173.532,4.667 173.568,4.821 173.537,4.968L173.214,6.468C173.165,6.699 172.961,6.863 172.726,6.863L168.936,6.863C168.936,6.863 168.678,8.084 168.678,8.084L172.843,8.084C172.994,8.084 173.136,8.152 173.231,8.269C173.326,8.386 173.363,8.54 173.332,8.687L173.004,10.24C172.955,10.471 172.751,10.637 172.515,10.637L165.97,10.637C165.819,10.637 165.676,10.569 165.581,10.451C165.486,10.334 165.449,10.18 165.481,10.033L167.315,1.396C167.364,1.165 167.568,1 167.804,1L174.138,1C174.289,1 174.432,1.068 174.527,1.186C174.621,1.303 174.658,1.457 174.627,1.605L174.298,3.134C174.249,3.365 174.045,3.529 173.81,3.529ZM173.81,3.029L174.138,1.5L167.804,1.5L165.97,10.137L172.515,10.137L172.843,8.584L168.062,8.584L168.53,6.363L172.726,6.363L173.048,4.863L168.853,4.863L169.239,3.029L173.81,3.029Z" style="fill:rgb(156,0,255);fill-opacity:0.22;"/>
            <path d="M153.68,18.318L153.457,18.318C153.301,18.318 153.153,18.245 153.059,18.121C152.964,17.996 152.933,17.834 152.976,17.684C153.156,17.037 153.454,16.508 153.861,16.092C153.863,16.09 153.864,16.089 153.865,16.088C154.51,15.443 155.442,15.098 156.674,15.098C157.472,15.098 158.145,15.263 158.698,15.58C159.355,15.956 159.641,16.644 159.419,17.688L158.792,20.617C158.75,20.815 158.705,21.053 158.655,21.334C158.648,21.379 158.644,21.431 158.641,21.472C158.812,21.584 158.898,21.789 158.857,21.991C158.856,21.997 158.855,22.003 158.853,22.009L158.813,22.225C158.735,22.632 158.32,22.637 158.32,22.637L156.504,22.637C156.302,22.637 156.124,22.516 156.046,22.337C155.968,22.383 155.89,22.427 155.81,22.468L155.805,22.471C155.327,22.714 154.822,22.836 154.289,22.836C153.548,22.836 152.989,22.604 152.596,22.181C152.19,21.745 152.036,21.134 152.206,20.333C152.403,19.412 152.897,18.742 153.68,18.318ZM155.621,17.806L156.039,17.756C156.3,17.724 156.491,17.69 156.609,17.642L156.614,17.64C156.688,17.611 156.751,17.587 156.765,17.524C156.768,17.512 156.769,17.498 156.771,17.484C156.666,17.446 156.517,17.439 156.328,17.439C156.09,17.439 155.901,17.476 155.77,17.595C155.714,17.654 155.665,17.724 155.621,17.806ZM156.1,18.252L155.52,18.322C154.855,18.404 154.338,18.541 153.967,18.732C153.287,19.084 152.863,19.652 152.695,20.438C152.566,21.043 152.655,21.511 152.962,21.841C153.269,22.171 153.711,22.336 154.289,22.336C154.742,22.336 155.172,22.232 155.578,22.025C155.914,21.85 156.225,21.637 156.51,21.387C156.49,21.531 156.479,21.66 156.475,21.773C156.471,21.887 156.48,22.008 156.504,22.137L158.32,22.137L158.367,21.891C158.27,21.84 158.202,21.775 158.165,21.697C158.128,21.619 158.127,21.471 158.162,21.252C158.213,20.963 158.26,20.717 158.303,20.514L158.93,17.584C159.094,16.814 158.934,16.291 158.449,16.014C157.965,15.736 157.373,15.598 156.674,15.598C155.6,15.598 154.781,15.879 154.219,16.441C153.867,16.801 153.613,17.26 153.457,17.818L155.068,17.818C155.162,17.572 155.281,17.377 155.426,17.232C155.633,17.037 155.934,16.939 156.328,16.939C156.68,16.939 156.936,16.989 157.096,17.089C157.256,17.188 157.309,17.369 157.254,17.631C157.207,17.846 157.055,18.004 156.797,18.105C156.652,18.164 156.42,18.213 156.1,18.252ZM155.701,19.384L155.742,19.877L155.826,19.87C155.527,19.921 155.306,19.975 155.166,20.048C155.016,20.127 154.924,20.25 154.89,20.416C154.89,20.418 154.889,20.42 154.889,20.422C154.876,20.479 154.874,20.558 154.874,20.592C154.917,20.619 154.974,20.623 155.039,20.623C155.311,20.623 155.577,20.539 155.84,20.379C156.033,20.262 156.166,20.061 156.261,19.791C156.246,19.793 156.232,19.796 156.217,19.799L156.207,19.8L155.742,19.877L155.702,19.384C155.715,19.382 155.729,19.379 155.742,19.377L156.079,19.316L156.129,19.807L156.085,19.315L156.129,19.307C156.324,19.271 156.48,19.233 156.598,19.192C156.715,19.151 156.832,19.098 156.949,19.031L156.82,19.652C156.688,20.211 156.447,20.596 156.1,20.807C155.752,21.018 155.398,21.123 155.039,21.123C154.813,21.123 154.634,21.06 154.503,20.933C154.372,20.806 154.338,20.6 154.4,20.314C154.467,19.994 154.645,19.758 154.934,19.605C155.099,19.519 155.355,19.445 155.701,19.384ZM167.661,22.334C167.34,22.152 167.077,21.896 166.869,21.57C166.443,20.902 166.323,19.999 166.568,18.857C166.787,17.812 167.236,16.936 167.909,16.224C168.62,15.472 169.481,15.098 170.49,15.098C170.893,15.098 171.229,15.166 171.5,15.289C171.624,15.345 171.741,15.413 171.848,15.493C171.937,15.346 172.098,15.25 172.277,15.25L173.9,15.25C174.051,15.25 174.194,15.318 174.289,15.435C174.384,15.553 174.421,15.706 174.389,15.854L173.101,21.911C172.907,22.838 172.592,23.531 172.179,24.002C171.468,24.814 170.36,25.25 168.832,25.25C167.888,25.25 167.162,25.046 166.645,24.676C166.05,24.25 165.783,23.621 165.887,22.773C165.917,22.522 166.13,22.334 166.383,22.334L167.661,22.334ZM170.888,21.414L171.014,21.567L171.012,21.58C170.883,22.189 170.725,22.623 170.537,22.881C170.248,23.283 169.803,23.484 169.201,23.484C168.775,23.484 168.488,23.408 168.34,23.256C168.254,23.17 168.207,23.029 168.199,22.834L166.383,22.834C166.305,23.471 166.489,23.949 166.937,24.27C167.384,24.59 168.016,24.75 168.832,24.75C170.184,24.75 171.174,24.391 171.803,23.672C172.17,23.254 172.439,22.633 172.611,21.809L173.9,15.75L172.277,15.75L172.084,16.67C171.928,16.221 171.664,15.912 171.293,15.744C171.078,15.646 170.811,15.598 170.49,15.598C169.623,15.598 168.884,15.921 168.272,16.567C167.661,17.214 167.256,18.012 167.057,18.961C166.846,19.945 166.924,20.726 167.291,21.302C167.658,21.878 168.252,22.166 169.072,22.166C169.604,22.166 170.063,22.039 170.449,21.785C170.594,21.693 170.741,21.569 170.888,21.414ZM171.592,18.914C171.455,19.559 171.221,20.028 170.889,20.323C170.557,20.618 170.195,20.766 169.805,20.766C169.219,20.766 168.871,20.496 168.762,19.957C168.695,19.668 168.701,19.338 168.779,18.967C168.873,18.537 169.01,18.176 169.189,17.883C169.529,17.332 169.992,17.057 170.578,17.057C171.008,17.057 171.316,17.215 171.504,17.531C171.691,17.848 171.721,18.309 171.592,18.914ZM171.103,18.81C171.198,18.363 171.212,18.02 171.074,17.786C170.975,17.62 170.804,17.557 170.578,17.557C170.169,17.557 169.853,17.76 169.615,18.145C169.462,18.395 169.348,18.705 169.268,19.071C169.207,19.361 169.197,19.619 169.249,19.845C169.25,19.849 169.251,19.853 169.252,19.858C169.279,19.993 169.324,20.101 169.411,20.168C169.508,20.243 169.642,20.266 169.805,20.266C170.077,20.266 170.325,20.155 170.557,19.949C170.823,19.713 170.993,19.327 171.103,18.81ZM168.662,22.644C168.683,22.697 168.696,22.754 168.699,22.814C168.7,22.848 168.709,22.896 168.713,22.919C168.734,22.931 168.763,22.936 168.795,22.944C168.904,22.973 169.039,22.984 169.201,22.984C169.616,22.984 169.932,22.866 170.131,22.589L170.133,22.587C170.159,22.551 170.184,22.511 170.208,22.468C169.866,22.599 169.488,22.666 169.072,22.666C168.93,22.666 168.793,22.659 168.662,22.644ZM162.84,15.487C163.287,15.23 163.797,15.098 164.373,15.098C165.191,15.098 165.807,15.334 166.235,15.763C166.675,16.202 166.851,16.921 166.638,17.939L165.723,22.241C165.674,22.472 165.47,22.637 165.234,22.637L163.523,22.637C163.373,22.637 163.23,22.569 163.135,22.452C163.04,22.335 163.003,22.181 163.034,22.033L163.855,18.149L163.856,18.144C163.906,17.918 163.932,17.745 163.895,17.624C163.894,17.621 163.893,17.619 163.892,17.616C163.856,17.489 163.72,17.486 163.541,17.486C163.155,17.486 162.856,17.651 162.642,17.979C162.507,18.188 162.411,18.457 162.343,18.781L162.343,18.783L161.61,22.24C161.561,22.471 161.357,22.637 161.121,22.637L159.457,22.637C159.306,22.637 159.163,22.569 159.068,22.451C158.974,22.334 158.937,22.18 158.968,22.033L160.321,15.658C160.37,15.427 160.574,15.262 160.811,15.262L162.422,15.262C162.573,15.262 162.716,15.33 162.811,15.447C162.821,15.46 162.831,15.473 162.84,15.487ZM166.148,17.836C166.316,17.035 166.228,16.462 165.882,16.116C165.536,15.771 165.033,15.598 164.373,15.598C163.846,15.598 163.383,15.727 162.984,15.984C162.762,16.129 162.508,16.365 162.223,16.693L162.422,15.762L160.811,15.762L159.457,22.137L161.121,22.137L161.854,18.68C161.936,18.285 162.059,17.961 162.223,17.707C162.535,17.227 162.975,16.986 163.541,16.986C164.002,16.986 164.279,17.15 164.373,17.479C164.428,17.658 164.418,17.916 164.344,18.252L163.523,22.137L165.234,22.137L166.148,17.836ZM180.316,19.9C180.338,19.921 180.358,19.944 180.376,19.969C180.47,20.099 180.496,20.266 180.446,20.418C180.298,20.865 179.979,21.327 179.47,21.785C178.698,22.491 177.755,22.848 176.637,22.848C175.676,22.848 174.898,22.53 174.295,21.911C173.693,21.293 173.479,20.297 173.775,18.904C174.035,17.676 174.556,16.741 175.317,16.086C176.097,15.415 176.996,15.08 178.014,15.08C178.634,15.08 179.168,15.202 179.618,15.435C180.103,15.686 180.465,16.079 180.698,16.621C180.899,17.067 180.985,17.584 180.944,18.172C180.927,18.484 180.855,18.933 180.722,19.517C180.676,19.718 180.514,19.867 180.316,19.9ZM177.914,19.906L176.312,19.906C176.314,20.106 176.363,20.261 176.491,20.363C176.493,20.364 176.495,20.366 176.497,20.367C176.612,20.461 176.768,20.494 176.959,20.494C177.187,20.494 177.387,20.433 177.558,20.304C177.66,20.225 177.758,20.113 177.858,19.973C177.875,19.949 177.893,19.927 177.914,19.906ZM180.24,16.822C180.057,16.393 179.772,16.078 179.388,15.879C179.003,15.68 178.545,15.58 178.014,15.58C177.119,15.58 176.329,15.875 175.644,16.465C174.958,17.055 174.498,17.902 174.264,19.008C174.014,20.187 174.144,21.039 174.653,21.563C175.163,22.086 175.824,22.348 176.637,22.348C177.621,22.348 178.453,22.037 179.133,21.416C179.566,21.025 179.846,20.641 179.971,20.262L178.266,20.262C178.133,20.449 177.998,20.596 177.861,20.701C177.604,20.896 177.303,20.994 176.959,20.994C176.635,20.994 176.375,20.914 176.18,20.754C175.855,20.496 175.75,20.047 175.863,19.406L180.234,19.406C180.359,18.855 180.43,18.434 180.445,18.141C180.48,17.641 180.412,17.201 180.24,16.822ZM176.139,18.305C176.279,17.891 176.481,17.562 176.745,17.32C177.009,17.078 177.334,16.957 177.721,16.957C178.076,16.957 178.351,17.071 178.544,17.3C178.737,17.528 178.801,17.863 178.734,18.305L176.139,18.305ZM176.971,17.805C176.971,17.805 178.248,17.805 178.248,17.805C178.233,17.735 178.206,17.674 178.162,17.623C178.06,17.502 177.909,17.457 177.721,17.457C177.469,17.457 177.255,17.531 177.083,17.689C177.044,17.725 177.006,17.763 176.971,17.805ZM187.471,15.476C187.892,15.234 188.379,15.109 188.936,15.109C189.566,15.109 190.042,15.27 190.375,15.548C190.386,15.557 190.398,15.567 190.408,15.578C190.481,15.651 190.548,15.73 190.607,15.814C190.8,15.655 191.003,15.525 191.214,15.423C191.216,15.422 191.219,15.421 191.221,15.419C191.667,15.213 192.137,15.109 192.633,15.109C192.985,15.109 193.317,15.178 193.63,15.315C193.968,15.463 194.256,15.716 194.483,16.086C194.485,16.09 194.487,16.093 194.489,16.097C194.659,16.39 194.749,16.748 194.744,17.174C194.744,17.178 194.744,17.182 194.744,17.186C194.735,17.42 194.687,17.762 194.593,18.213L194.592,18.217L193.725,22.242C193.676,22.472 193.472,22.637 193.236,22.637L191.525,22.637C191.375,22.637 191.232,22.569 191.137,22.452C191.042,22.334 191.005,22.181 191.036,22.033L191.897,17.968C191.928,17.823 191.942,17.704 191.916,17.606C191.888,17.521 191.791,17.527 191.672,17.527C191.389,17.527 191.169,17.644 191.01,17.878C190.909,18.034 190.837,18.222 190.789,18.44L189.987,22.24C189.938,22.471 189.734,22.637 189.498,22.637L187.816,22.637C187.666,22.637 187.523,22.569 187.428,22.452C187.333,22.335 187.296,22.181 187.327,22.033L188.13,18.231L188.13,18.228C188.19,17.953 188.224,17.754 188.193,17.629L188.192,17.625C188.17,17.534 188.072,17.545 187.951,17.545C187.661,17.545 187.437,17.616 187.293,17.805C187.201,17.938 187.136,18.138 187.081,18.397L186.266,22.24C186.218,22.471 186.014,22.637 185.777,22.637L184.084,22.637C183.933,22.637 183.79,22.569 183.695,22.451C183.601,22.334 183.564,22.18 183.595,22.033L184.948,15.658C184.997,15.427 185.201,15.262 185.438,15.262L187.061,15.262C187.212,15.262 187.354,15.33 187.449,15.447C187.457,15.457 187.464,15.466 187.471,15.476ZM194.057,16.348C193.889,16.074 193.68,15.883 193.43,15.773C193.18,15.664 192.914,15.609 192.633,15.609C192.211,15.609 191.811,15.697 191.432,15.873C191.068,16.049 190.738,16.324 190.441,16.699C190.383,16.387 190.254,16.131 190.055,15.932C189.797,15.717 189.424,15.609 188.936,15.609C188.42,15.609 187.975,15.734 187.6,15.984C187.385,16.125 187.139,16.361 186.861,16.693L187.061,15.762L185.438,15.762L184.084,22.137L185.777,22.137L186.592,18.293C186.666,17.945 186.766,17.684 186.891,17.508C187.121,17.199 187.475,17.045 187.951,17.045C188.361,17.045 188.604,17.199 188.678,17.508C188.721,17.68 188.701,17.955 188.619,18.334L187.816,22.137L189.498,22.137L190.301,18.334C190.363,18.049 190.461,17.805 190.594,17.602C190.852,17.219 191.211,17.027 191.672,17.027C192.07,17.027 192.313,17.176 192.398,17.473C192.441,17.629 192.438,17.828 192.387,18.07L191.525,22.137L193.236,22.137L194.104,18.111C194.189,17.697 194.236,17.383 194.244,17.168C194.248,16.844 194.186,16.57 194.057,16.348ZM202.185,17.894C202.457,17.208 202.829,16.638 203.295,16.179C204.03,15.455 204.885,15.098 205.857,15.098C206.352,15.098 206.766,15.215 207.104,15.432C207.115,15.44 207.138,15.455 207.138,15.455L207.571,13.408C207.62,13.177 207.824,13.012 208.061,13.012L209.754,13.012C209.905,13.012 210.047,13.08 210.142,13.197C210.237,13.314 210.274,13.468 210.243,13.615L209.198,18.546C209.479,17.493 209.97,16.676 210.655,16.086C211.435,15.415 212.334,15.08 213.352,15.08C213.972,15.08 214.506,15.202 214.955,15.435C215.441,15.686 215.803,16.079 216.036,16.621C216.237,17.067 216.323,17.584 216.282,18.172C216.265,18.484 216.192,18.933 216.06,19.517C216.052,19.551 216.041,19.583 216.027,19.613C216.067,19.603 216.109,19.598 216.152,19.598L217.186,19.598C216.971,19.475 216.804,19.345 216.685,19.21C216.348,18.84 216.215,18.315 216.367,17.619C216.516,16.919 216.911,16.311 217.568,15.807C218.202,15.321 218.998,15.068 219.961,15.068C220.888,15.068 221.598,15.273 222.103,15.643C222.662,16.053 222.935,16.745 222.819,17.752C222.79,18.005 222.576,18.195 222.322,18.195L221.511,18.195C221.758,18.337 221.956,18.5 222.108,18.68C222.109,18.682 222.11,18.684 222.112,18.686C222.466,19.119 222.591,19.657 222.454,20.307L222.454,20.309C222.291,21.063 221.882,21.681 221.22,22.158C220.594,22.61 219.73,22.854 218.619,22.854C217.431,22.854 216.622,22.557 216.162,22.056C215.84,21.704 215.652,21.292 215.608,20.817C215.431,21.137 215.167,21.462 214.808,21.785C214.036,22.491 213.093,22.848 211.975,22.848C211.014,22.848 210.236,22.53 209.633,21.911C209.083,21.347 208.857,20.468 209.047,19.26L208.415,22.24C208.366,22.471 208.162,22.637 207.926,22.637L206.303,22.637C206.152,22.637 206.009,22.569 205.914,22.451C205.908,22.444 205.902,22.436 205.897,22.429C205.839,22.463 205.78,22.495 205.722,22.525C205.315,22.729 204.844,22.836 204.305,22.836C203.371,22.836 202.668,22.453 202.191,21.698C201.909,21.251 201.755,20.724 201.741,20.117C201.477,20.712 201.103,21.246 200.62,21.718C199.848,22.472 198.844,22.859 197.602,22.859C196.284,22.859 195.407,22.416 194.931,21.616C194.475,20.85 194.346,19.93 194.575,18.851C194.791,17.833 195.276,16.95 196.031,16.203C196.806,15.437 197.811,15.045 199.055,15.045C200.374,15.045 201.251,15.494 201.725,16.307C202.003,16.783 202.158,17.311 202.185,17.894ZM207.416,16.559C207.291,16.258 207.097,16.022 206.833,15.853C206.569,15.683 206.244,15.598 205.857,15.598C205.018,15.598 204.28,15.91 203.646,16.535C203.011,17.16 202.576,18.018 202.342,19.107C202.143,20.053 202.233,20.827 202.614,21.431C202.995,22.034 203.559,22.336 204.305,22.336C204.758,22.336 205.155,22.25 205.497,22.078C205.839,21.906 206.17,21.631 206.49,21.252L206.303,22.137L207.926,22.137L209.754,13.512L208.061,13.512L207.416,16.559ZM206.936,19.037C206.818,19.596 206.599,20.051 206.276,20.402C205.954,20.754 205.557,20.93 205.084,20.93C204.611,20.93 204.297,20.753 204.141,20.399C203.984,20.046 203.969,19.574 204.094,18.984C204.211,18.437 204.423,17.979 204.729,17.61C205.036,17.241 205.434,17.057 205.922,17.057C206.242,17.057 206.502,17.158 206.701,17.361C207.021,17.697 207.1,18.256 206.936,19.037ZM206.446,18.934C206.565,18.367 206.573,17.954 206.342,17.709C206.235,17.602 206.093,17.557 205.922,17.557C205.591,17.557 205.322,17.68 205.114,17.93C204.856,18.241 204.681,18.628 204.583,19.089C204.485,19.551 204.476,19.92 204.598,20.197C204.676,20.373 204.849,20.43 205.084,20.43C205.411,20.43 205.685,20.307 205.908,20.064C206.174,19.774 206.349,19.396 206.446,18.934ZM215.578,16.822C215.395,16.393 215.11,16.078 214.726,15.879C214.341,15.68 213.883,15.58 213.352,15.58C212.457,15.58 211.667,15.875 210.981,16.465C210.296,17.055 209.836,17.902 209.602,19.008C209.352,20.187 209.481,21.039 209.991,21.563C210.501,22.086 211.162,22.348 211.975,22.348C212.959,22.348 213.791,22.037 214.471,21.416C214.904,21.025 215.184,20.641 215.309,20.262L213.604,20.262C213.471,20.449 213.336,20.596 213.199,20.701C212.941,20.896 212.641,20.994 212.297,20.994C211.973,20.994 211.713,20.914 211.518,20.754C211.193,20.496 211.088,20.047 211.201,19.406L215.572,19.406C215.697,18.855 215.768,18.434 215.783,18.141C215.818,17.641 215.75,17.201 215.578,16.822ZM211.477,18.305C211.617,17.891 211.819,17.562 212.083,17.32C212.347,17.078 212.672,16.957 213.059,16.957C213.414,16.957 213.688,17.071 213.882,17.3C214.075,17.528 214.139,17.863 214.072,18.305L211.477,18.305ZM212.309,17.805C212.309,17.805 213.586,17.805 213.586,17.805C213.571,17.735 213.543,17.674 213.5,17.623C213.398,17.502 213.247,17.457 213.059,17.457C212.807,17.457 212.593,17.531 212.421,17.689C212.382,17.725 212.344,17.763 212.309,17.805ZM217.846,20.098L216.152,20.098C216.016,20.754 216.142,21.294 216.53,21.718C216.919,22.142 217.615,22.354 218.619,22.354C219.604,22.354 220.373,22.153 220.928,21.753C221.482,21.353 221.828,20.836 221.965,20.203C222.066,19.723 221.986,19.322 221.725,19.002C221.459,18.686 221.012,18.449 220.383,18.293C219.434,18.074 218.887,17.92 218.742,17.83C218.594,17.744 218.541,17.605 218.584,17.414C218.615,17.262 218.72,17.129 218.897,17.016C219.075,16.902 219.346,16.846 219.709,16.846C220.15,16.846 220.439,16.959 220.576,17.186C220.646,17.311 220.672,17.48 220.652,17.695L222.322,17.695C222.412,16.914 222.24,16.364 221.807,16.046C221.373,15.728 220.758,15.568 219.961,15.568C219.121,15.568 218.425,15.78 217.872,16.204C217.319,16.628 216.98,17.135 216.855,17.725C216.746,18.225 216.813,18.607 217.055,18.873C217.293,19.143 217.754,19.367 218.438,19.547C219.391,19.785 219.936,19.953 220.072,20.051C220.209,20.148 220.258,20.291 220.219,20.479C220.176,20.674 220.047,20.82 219.832,20.918C219.617,21.016 219.346,21.064 219.018,21.064C218.459,21.064 218.102,20.953 217.945,20.73C217.852,20.605 217.818,20.395 217.846,20.098ZM218.342,20.038C218.346,20.073 218.347,20.108 218.344,20.144C218.332,20.266 218.352,20.424 218.354,20.444C218.378,20.477 218.425,20.487 218.479,20.504C218.619,20.547 218.799,20.564 219.018,20.564C219.262,20.564 219.465,20.535 219.625,20.463C219.656,20.449 219.684,20.435 219.704,20.416C219.509,20.333 219.052,20.216 218.342,20.038ZM215.682,19.929C215.686,19.916 215.692,19.903 215.697,19.89C215.683,19.894 215.668,19.897 215.653,19.9C215.663,19.909 215.673,19.919 215.682,19.929ZM220.153,17.727C220.152,17.701 220.152,17.676 220.154,17.65C220.162,17.563 220.17,17.491 220.141,17.434C220.117,17.405 220.076,17.394 220.029,17.381C219.94,17.356 219.833,17.346 219.709,17.346C219.468,17.346 219.284,17.362 219.166,17.437C219.153,17.446 219.14,17.453 219.128,17.459C219.311,17.524 219.654,17.61 220.153,17.727ZM213.252,19.906L211.65,19.906C211.652,20.106 211.7,20.261 211.829,20.363C211.831,20.364 211.833,20.366 211.835,20.367C211.949,20.461 212.106,20.494 212.297,20.494C212.525,20.494 212.725,20.433 212.896,20.304C212.998,20.225 213.096,20.113 213.196,19.973C213.212,19.949 213.231,19.927 213.252,19.906ZM197.602,22.359C198.699,22.359 199.589,22.026 200.271,21.36C200.952,20.694 201.393,19.893 201.592,18.955C201.787,18.033 201.688,17.234 201.293,16.559C200.898,15.883 200.152,15.545 199.055,15.545C197.957,15.545 197.066,15.883 196.383,16.559C195.699,17.234 195.26,18.033 195.064,18.955C194.865,19.893 194.964,20.694 195.36,21.36C195.757,22.026 196.504,22.359 197.602,22.359ZM199.84,18.955C199.703,19.596 199.467,20.09 199.131,20.438C198.795,20.785 198.383,20.959 197.895,20.959C197.406,20.959 197.067,20.785 196.878,20.438C196.688,20.09 196.662,19.596 196.799,18.955C196.936,18.314 197.172,17.821 197.508,17.476C197.844,17.13 198.256,16.957 198.744,16.957C199.232,16.957 199.571,17.13 199.761,17.476C199.95,17.821 199.977,18.314 199.84,18.955ZM199.351,18.851C199.456,18.36 199.467,17.981 199.322,17.716C199.217,17.524 199.015,17.457 198.744,17.457C198.398,17.457 198.105,17.579 197.866,17.824C197.587,18.111 197.401,18.527 197.288,19.059C197.183,19.551 197.172,19.931 197.317,20.198C197.422,20.391 197.624,20.459 197.895,20.459C198.241,20.459 198.533,20.337 198.771,20.09C199.051,19.801 199.237,19.384 199.351,18.851ZM142.951,18C142.962,17.86 142.947,17.732 142.891,17.611C142.832,17.518 142.709,17.51 142.553,17.51C142.169,17.51 141.877,17.717 141.655,18.098C141.505,18.358 141.388,18.704 141.296,19.135C141.214,19.527 141.185,19.843 141.224,20.082C141.245,20.209 141.278,20.312 141.354,20.376C141.434,20.442 141.547,20.459 141.686,20.459C141.919,20.459 142.105,20.417 142.23,20.291C142.387,20.132 142.5,19.925 142.58,19.672C142.645,19.464 142.838,19.322 143.057,19.322L144.762,19.322C144.919,19.322 145.066,19.396 145.161,19.521C145.255,19.646 145.286,19.808 145.243,19.959C145.078,20.538 144.757,21.089 144.271,21.605C143.494,22.44 142.52,22.859 141.346,22.859C140.093,22.859 139.273,22.439 138.842,21.696C138.435,20.995 138.327,20.088 138.566,18.969C138.82,17.755 139.326,16.817 140.062,16.143C140.821,15.448 141.737,15.098 142.811,15.098C143.752,15.098 144.471,15.329 144.981,15.752C145.519,16.197 145.783,16.968 145.657,18.096C145.629,18.35 145.415,18.541 145.16,18.541L143.449,18.541C143.31,18.541 143.176,18.483 143.082,18.38C142.987,18.277 142.939,18.139 142.951,18ZM143.449,18.041L145.16,18.041C145.262,17.131 145.096,16.496 144.662,16.137C144.229,15.777 143.611,15.598 142.811,15.598C141.869,15.598 141.065,15.902 140.399,16.512C139.733,17.121 139.285,17.975 139.055,19.072C138.848,20.045 138.921,20.836 139.274,21.445C139.628,22.055 140.318,22.359 141.346,22.359C142.373,22.359 143.227,21.994 143.906,21.264C144.332,20.811 144.617,20.33 144.762,19.822L143.057,19.822C142.951,20.158 142.794,20.432 142.585,20.643C142.376,20.854 142.076,20.959 141.686,20.959C141.135,20.959 140.816,20.693 140.73,20.162C140.684,19.877 140.709,19.5 140.807,19.031C140.912,18.539 141.051,18.145 141.223,17.848C141.547,17.289 141.99,17.01 142.553,17.01C142.947,17.01 143.211,17.139 143.344,17.396C143.434,17.588 143.469,17.803 143.449,18.041ZM152.487,16.185C152.656,16.507 152.73,16.84 152.711,17.18C152.697,17.448 152.627,17.885 152.499,18.491L151.702,22.241C151.653,22.472 151.449,22.637 151.213,22.637L149.508,22.637C149.357,22.637 149.214,22.569 149.119,22.452C149.025,22.335 148.987,22.181 149.019,22.033L149.839,18.149L149.839,18.146C149.89,17.911 149.908,17.722 149.86,17.578C149.858,17.574 149.857,17.569 149.855,17.565C149.824,17.462 149.708,17.475 149.561,17.475C149.263,17.475 149.014,17.569 148.818,17.768C148.585,18.004 148.432,18.346 148.339,18.784L147.606,22.24C147.557,22.471 147.353,22.637 147.117,22.637L145.453,22.637C145.302,22.637 145.16,22.569 145.065,22.451C144.97,22.334 144.933,22.18 144.964,22.033L146.792,13.425C146.841,13.194 147.045,13.029 147.281,13.029L148.945,13.029C149.096,13.029 149.239,13.097 149.334,13.215C149.429,13.332 149.466,13.486 149.434,13.633C149.434,13.633 149.066,15.362 149.066,15.362C149.08,15.356 149.093,15.35 149.107,15.345C149.52,15.171 149.936,15.086 150.352,15.086C150.827,15.086 151.241,15.173 151.594,15.338C151.99,15.522 152.287,15.806 152.487,16.185ZM152.045,16.418C151.896,16.137 151.676,15.928 151.383,15.791C151.09,15.654 150.746,15.586 150.352,15.586C150,15.586 149.649,15.659 149.3,15.806C148.95,15.952 148.615,16.211 148.295,16.582L148.945,13.529L147.281,13.529L145.453,22.137L147.117,22.137L147.85,18.68C147.967,18.133 148.171,17.712 148.462,17.417C148.753,17.122 149.119,16.975 149.561,16.975C149.986,16.975 150.244,17.123 150.334,17.42C150.404,17.631 150.402,17.908 150.328,18.252L149.508,22.137L151.213,22.137L152.01,18.387C152.131,17.816 152.198,17.405 152.212,17.153C152.226,16.901 152.17,16.656 152.045,16.418Z" style="fill:rgb(156,0,255);fill-opacity:0.22;"/>
        </g>
        <g transform="matrix(0.933333,0,0,1.02041,9,-0.0306122)">
            <text x="157.673px" y="10.137px" style="font-family:'Helvetica-BoldOblique', 'Helvetica';font-weight:700;font-style:italic;font-size:12px;fill:rgb(80,73,115);fill-opacity:0.8;">LEFT to</text>
            <g transform="matrix(12,0,0,12,222.012,22.1367)">
            </g>
            <text x="137.988px" y="22.137px" style="font-family:'Helvetica-BoldOblique', 'Helvetica';font-weight:700;font-style:italic;font-size:12px;fill:rgb(80,73,115);fill-opacity:0.8;">change modes</text>
        </g>
    </g>
</svg>
