<?xml version="1.0" encoding="UTF-8" standalone="no"?>
<!DOCTYPE svg PUBLIC "-//W3C//DTD SVG 1.1//EN" "http://www.w3.org/Graphics/SVG/1.1/DTD/svg11.dtd">
<svg width="100%" height="100%" viewBox="0 0 600 312" version="1.1" xmlns="http://www.w3.org/2000/svg" xmlns:xlink="http://www.w3.org/1999/xlink" xml:space="preserve" xmlns:serif="http://www.serif.com/" style="fill-rule:evenodd;clip-rule:evenodd;stroke-linejoin:round;stroke-miterlimit:2;">
    <g id="_8" serif:id="8">
        <g transform="matrix(0.84183,0,0,0.84183,14.1199,54.5318)">
            <text x="0px" y="290.3px" style="font-family:'Consolas', monospace;font-size:23.758px;">G</text>
            <g transform="matrix(13.8508,0,0,13.8508,20.6774,291.892)">
            </g>
            <text x="13.062px" y="291.892px" style="font-family:'Consolas-Italic', 'Consolas', monospace;font-style:italic;font-size:13.851px;">b</text>
        </g>
        <g transform="matrix(0.84183,0,0,0.84183,68.5639,53.863)">
            <g transform="matrix(23.7578,0,0,23.7578,13.0621,290.3)">
            </g>
            <text x="0px" y="290.3px" style="font-family:'Consolas', monospace;font-size:23.758px;">G</text>
        </g>
        <g transform="matrix(0.84183,0,0,0.84183,115.722,54.5318)">
            <text x="0px" y="290.3px" style="font-family:'Consolas', monospace;font-size:23.758px;">A</text>
            <g transform="matrix(13.8508,0,0,13.8508,20.6774,291.892)">
            </g>
            <text x="13.062px" y="291.892px" style="font-family:'Consolas-Italic', 'Consolas', monospace;font-style:italic;font-size:13.851px;">b</text>
        </g>
        <g transform="matrix(0.84183,0,0,0.84183,168.82,53.863)">
            <g transform="matrix(23.7578,0,0,23.7578,13.0621,290.3)">
            </g>
            <text x="0px" y="290.3px" style="font-family:'Consolas', monospace;font-size:23.758px;">A</text>
        </g>
        <g transform="matrix(0.84183,0,0,0.84183,213.909,54.5318)">
            <text x="0px" y="290.3px" style="font-family:'Consolas', monospace;font-size:23.758px;">B</text>
            <g transform="matrix(13.8508,0,0,13.8508,20.6774,291.892)">
            </g>
            <text x="13.062px" y="291.892px" style="font-family:'Consolas-Italic', 'Consolas', monospace;font-style:italic;font-size:13.851px;">b</text>
        </g>
        <g transform="matrix(0.84183,0,0,0.84183,268.34,53.863)">
            <g transform="matrix(23.7578,0,0,23.7578,13.0621,290.3)">
            </g>
            <text x="0px" y="290.3px" style="font-family:'Consolas', monospace;font-size:23.758px;">B</text>
        </g>
        <g transform="matrix(0.84183,0,0,0.84183,318.459,53.863)">
            <g transform="matrix(23.7578,0,0,23.7578,13.0621,290.3)">
            </g>
            <text x="0px" y="290.3px" style="font-family:'Consolas', monospace;font-size:23.758px;">C</text>
        </g>
        <g transform="matrix(0.84183,0,0,0.84183,365.165,54.5318)">
            <text x="0px" y="290.3px" style="font-family:'Consolas', monospace;font-size:23.758px;">D</text>
            <g transform="matrix(13.8508,0,0,13.8508,20.6774,291.892)">
            </g>
            <text x="13.062px" y="291.892px" style="font-family:'Consolas-Italic', 'Consolas', monospace;font-style:italic;font-size:13.851px;">b</text>
        </g>
        <g transform="matrix(0.84183,0,0,0.84183,418.583,53.863)">
            <g transform="matrix(23.7578,0,0,23.7578,13.0621,290.3)">
            </g>
            <text x="0px" y="290.3px" style="font-family:'Consolas', monospace;font-size:23.758px;">D</text>
        </g>
        <g transform="matrix(0.84183,0,0,0.84183,518.421,53.863)">
            <g transform="matrix(23.7578,0,0,23.7578,13.0621,290.3)">
            </g>
            <text x="0px" y="290.3px" style="font-family:'Consolas', monospace;font-size:23.758px;">E</text>
        </g>
        <g transform="matrix(0.84183,0,0,0.84183,568.502,55.2537)">
            <g transform="matrix(23.7578,0,0,23.7578,13.0621,290.3)">
            </g>
            <text x="0px" y="290.3px" style="font-family:'Consolas', monospace;font-size:23.758px;">F</text>
        </g>
        <g transform="matrix(0.84183,0,0,0.84183,465.205,54.5318)">
            <text x="0px" y="290.3px" style="font-family:'Consolas', monospace;font-size:23.758px;">E</text>
            <g transform="matrix(13.8508,0,0,13.8508,20.6774,291.892)">
            </g>
            <text x="13.062px" y="291.892px" style="font-family:'Consolas-Italic', 'Consolas', monospace;font-style:italic;font-size:13.851px;">b</text>
        </g>
    </g>
    <g id="_7" serif:id="7" transform="matrix(1,0,0,1,-1.47237,-39.0184)">
        <g transform="matrix(0.84183,0,0,0.84183,19.4419,54.5849)">
            <g transform="matrix(23.7578,0,0,23.7578,13.0621,290.3)">
            </g>
            <text x="0px" y="290.3px" style="font-family:'Consolas', monospace;font-size:23.758px;">B</text>
        </g>
        <g transform="matrix(0.84183,0,0,0.84183,69.9923,54.5849)">
            <g transform="matrix(23.7578,0,0,23.7578,13.0621,290.3)">
            </g>
            <text x="0px" y="290.3px" style="font-family:'Consolas', monospace;font-size:23.758px;">C</text>
        </g>
        <g transform="matrix(0.84183,0,0,0.84183,117.067,54.5849)">
            <text x="0px" y="290.3px" style="font-family:'Consolas', monospace;font-size:23.758px;">D</text>
            <g transform="matrix(13.8508,0,0,13.8508,20.6774,291.892)">
            </g>
            <text x="13.062px" y="291.892px" style="font-family:'Consolas-Italic', 'Consolas', monospace;font-style:italic;font-size:13.851px;">b</text>
        </g>
        <g transform="matrix(0.84183,0,0,0.84183,170.117,54.5849)">
            <g transform="matrix(23.7578,0,0,23.7578,13.0621,290.3)">
            </g>
            <text x="0px" y="290.3px" style="font-family:'Consolas', monospace;font-size:23.758px;">D</text>
        </g>
        <g transform="matrix(0.84183,0,0,0.84183,214.898,55.2537)">
            <text x="0px" y="290.3px" style="font-family:'Consolas', monospace;font-size:23.758px;">E</text>
            <g transform="matrix(13.8508,0,0,13.8508,20.6774,291.892)">
            </g>
            <text x="13.062px" y="291.892px" style="font-family:'Consolas-Italic', 'Consolas', monospace;font-style:italic;font-size:13.851px;">b</text>
        </g>
        <g transform="matrix(0.84183,0,0,0.84183,269.954,54.5849)">
            <g transform="matrix(23.7578,0,0,23.7578,13.0621,290.3)">
            </g>
            <text x="0px" y="290.3px" style="font-family:'Consolas', monospace;font-size:23.758px;">E</text>
        </g>
        <g transform="matrix(0.84183,0,0,0.84183,319.638,54.5849)">
            <g transform="matrix(23.7578,0,0,23.7578,13.0621,290.3)">
            </g>
            <text x="0px" y="290.3px" style="font-family:'Consolas', monospace;font-size:23.758px;">F</text>
        </g>
        <g transform="matrix(0.84183,0,0,0.84183,366.086,55.2537)">
            <text x="0px" y="290.3px" style="font-family:'Consolas', monospace;font-size:23.758px;">G</text>
            <g transform="matrix(13.8508,0,0,13.8508,20.6774,291.892)">
            </g>
            <text x="13.062px" y="291.892px" style="font-family:'Consolas-Italic', 'Consolas', monospace;font-style:italic;font-size:13.851px;">b</text>
        </g>
        <g transform="matrix(0.84183,0,0,0.84183,420.466,54.5849)">
            <g transform="matrix(23.7578,0,0,23.7578,13.0621,290.3)">
            </g>
            <text x="0px" y="290.3px" style="font-family:'Consolas', monospace;font-size:23.758px;">G</text>
        </g>
        <g transform="matrix(0.84183,0,0,0.84183,519.986,54.5849)">
            <g transform="matrix(23.7578,0,0,23.7578,13.0621,290.3)">
            </g>
            <text x="0px" y="290.3px" style="font-family:'Consolas', monospace;font-size:23.758px;">A</text>
        </g>
        <g transform="matrix(0.84183,0,0,0.84183,567.375,55.2537)">
            <text x="0px" y="290.3px" style="font-family:'Consolas', monospace;font-size:23.758px;">B</text>
            <g transform="matrix(13.8508,0,0,13.8508,20.6774,291.892)">
            </g>
            <text x="13.062px" y="291.892px" style="font-family:'Consolas-Italic', 'Consolas', monospace;font-style:italic;font-size:13.851px;">b</text>
        </g>
        <g transform="matrix(0.84183,0,0,0.84183,466.887,55.2537)">
            <text x="0px" y="290.3px" style="font-family:'Consolas', monospace;font-size:23.758px;">A</text>
            <g transform="matrix(13.8508,0,0,13.8508,20.6774,291.892)">
            </g>
            <text x="13.062px" y="291.892px" style="font-family:'Consolas-Italic', 'Consolas', monospace;font-style:italic;font-size:13.851px;">b</text>
        </g>
    </g>
    <g id="_6" serif:id="6" transform="matrix(1,0,0,1,-1.47237,-77.776)">
        <g transform="matrix(0.84183,0,0,0.84183,19.4419,54.5849)">
            <g transform="matrix(23.7578,0,0,23.7578,13.0621,290.3)">
            </g>
            <text x="0px" y="290.3px" style="font-family:'Consolas', monospace;font-size:23.758px;">E</text>
        </g>
        <g transform="matrix(0.84183,0,0,0.84183,69.9923,54.5849)">
            <g transform="matrix(23.7578,0,0,23.7578,13.0621,290.3)">
            </g>
            <text x="0px" y="290.3px" style="font-family:'Consolas', monospace;font-size:23.758px;">F</text>
        </g>
        <g transform="matrix(0.84183,0,0,0.84183,116.515,55.0072)">
            <text x="0px" y="290.3px" style="font-family:'Consolas', monospace;font-size:23.758px;">G</text>
            <g transform="matrix(13.8508,0,0,13.8508,20.6774,291.892)">
            </g>
            <text x="13.062px" y="291.892px" style="font-family:'Consolas-Italic', 'Consolas', monospace;font-style:italic;font-size:13.851px;">b</text>
        </g>
        <g transform="matrix(0.84183,0,0,0.84183,170.117,54.5849)">
            <g transform="matrix(23.7578,0,0,23.7578,13.0621,290.3)">
            </g>
            <text x="0px" y="290.3px" style="font-family:'Consolas', monospace;font-size:23.758px;">G</text>
        </g>
        <g transform="matrix(0.84183,0,0,0.84183,214.898,55.2537)">
            <text x="0px" y="290.3px" style="font-family:'Consolas', monospace;font-size:23.758px;">A</text>
            <g transform="matrix(13.8508,0,0,13.8508,20.6774,291.892)">
            </g>
            <text x="13.062px" y="291.892px" style="font-family:'Consolas-Italic', 'Consolas', monospace;font-style:italic;font-size:13.851px;">b</text>
        </g>
        <g transform="matrix(0.84183,0,0,0.84183,269.954,54.5849)">
            <g transform="matrix(23.7578,0,0,23.7578,13.0621,290.3)">
            </g>
            <text x="0px" y="290.3px" style="font-family:'Consolas', monospace;font-size:23.758px;">A</text>
        </g>
        <g transform="matrix(0.84183,0,0,0.84183,317.375,55.0072)">
            <text x="0px" y="290.3px" style="font-family:'Consolas', monospace;font-size:23.758px;">B</text>
            <g transform="matrix(13.8508,0,0,13.8508,20.6774,291.892)">
            </g>
            <text x="13.062px" y="291.892px" style="font-family:'Consolas-Italic', 'Consolas', monospace;font-style:italic;font-size:13.851px;">b</text>
        </g>
        <g transform="matrix(0.84183,0,0,0.84183,369.936,54.3384)">
            <g transform="matrix(23.7578,0,0,23.7578,13.0621,290.3)">
            </g>
            <text x="0px" y="290.3px" style="font-family:'Consolas', monospace;font-size:23.758px;">B</text>
        </g>
        <g transform="matrix(0.84183,0,0,0.84183,420.466,54.5849)">
            <g transform="matrix(23.7578,0,0,23.7578,13.0621,290.3)">
            </g>
            <text x="0px" y="290.3px" style="font-family:'Consolas', monospace;font-size:23.758px;">C</text>
        </g>
        <g transform="matrix(0.84183,0,0,0.84183,519.986,54.5849)">
            <g transform="matrix(23.7578,0,0,23.7578,13.0621,290.3)">
            </g>
            <text x="0px" y="290.3px" style="font-family:'Consolas', monospace;font-size:23.758px;">D</text>
        </g>
        <g transform="matrix(0.84183,0,0,0.84183,566.408,55.0072)">
            <text x="0px" y="290.3px" style="font-family:'Consolas', monospace;font-size:23.758px;">E</text>
            <g transform="matrix(13.8508,0,0,13.8508,20.6774,291.892)">
            </g>
            <text x="13.062px" y="291.892px" style="font-family:'Consolas-Italic', 'Consolas', monospace;font-style:italic;font-size:13.851px;">b</text>
        </g>
        <g transform="matrix(0.84183,0,0,0.84183,466.887,55.2537)">
            <text x="0px" y="290.3px" style="font-family:'Consolas', monospace;font-size:23.758px;">D</text>
            <g transform="matrix(13.8508,0,0,13.8508,20.6774,291.892)">
            </g>
            <text x="13.062px" y="291.892px" style="font-family:'Consolas-Italic', 'Consolas', monospace;font-style:italic;font-size:13.851px;">b</text>
        </g>
    </g>
    <g id="_5" serif:id="5" transform="matrix(1,0,0,1,-1.47237,-116.426)">
        <g transform="matrix(0.84183,0,0,0.84183,19.4419,54.5849)">
            <g transform="matrix(23.7578,0,0,23.7578,13.0621,290.3)">
            </g>
            <text x="0px" y="290.3px" style="font-family:'Consolas', monospace;font-size:23.758px;">A</text>
        </g>
        <g transform="matrix(0.84183,0,0,0.84183,66.6701,55.0072)">
            <text x="0px" y="290.3px" style="font-family:'Consolas', monospace;font-size:23.758px;">B</text>
            <g transform="matrix(13.8508,0,0,13.8508,20.6774,291.892)">
            </g>
            <text x="13.062px" y="291.892px" style="font-family:'Consolas-Italic', 'Consolas', monospace;font-style:italic;font-size:13.851px;">b</text>
        </g>
        <g transform="matrix(0.84183,0,0,0.84183,120.365,54.3384)">
            <g transform="matrix(23.7578,0,0,23.7578,13.0621,290.3)">
            </g>
            <text x="0px" y="290.3px" style="font-family:'Consolas', monospace;font-size:23.758px;">B</text>
        </g>
        <g transform="matrix(0.84183,0,0,0.84183,170.117,54.5849)">
            <g transform="matrix(23.7578,0,0,23.7578,13.0621,290.3)">
            </g>
            <text x="0px" y="290.3px" style="font-family:'Consolas', monospace;font-size:23.758px;">C</text>
        </g>
        <g transform="matrix(0.84183,0,0,0.84183,214.898,55.2537)">
            <text x="0px" y="290.3px" style="font-family:'Consolas', monospace;font-size:23.758px;">D</text>
            <g transform="matrix(13.8508,0,0,13.8508,20.6774,291.892)">
            </g>
            <text x="13.062px" y="291.892px" style="font-family:'Consolas-Italic', 'Consolas', monospace;font-style:italic;font-size:13.851px;">b</text>
        </g>
        <g transform="matrix(0.84183,0,0,0.84183,269.954,54.5849)">
            <g transform="matrix(23.7578,0,0,23.7578,13.0621,290.3)">
            </g>
            <text x="0px" y="290.3px" style="font-family:'Consolas', monospace;font-size:23.758px;">D</text>
        </g>
        <g transform="matrix(0.84183,0,0,0.84183,316.125,55.0072)">
            <text x="0px" y="290.3px" style="font-family:'Consolas', monospace;font-size:23.758px;">E</text>
            <g transform="matrix(13.8508,0,0,13.8508,20.6774,291.892)">
            </g>
            <text x="13.062px" y="291.892px" style="font-family:'Consolas-Italic', 'Consolas', monospace;font-style:italic;font-size:13.851px;">b</text>
        </g>
        <g transform="matrix(0.84183,0,0,0.84183,369.936,54.3384)">
            <g transform="matrix(23.7578,0,0,23.7578,13.0621,290.3)">
            </g>
            <text x="0px" y="290.3px" style="font-family:'Consolas', monospace;font-size:23.758px;">E</text>
        </g>
        <g transform="matrix(0.84183,0,0,0.84183,420.466,54.5849)">
            <g transform="matrix(23.7578,0,0,23.7578,13.0621,290.3)">
            </g>
            <text x="0px" y="290.3px" style="font-family:'Consolas', monospace;font-size:23.758px;">F</text>
        </g>
        <g transform="matrix(0.84183,0,0,0.84183,519.986,54.5849)">
            <g transform="matrix(23.7578,0,0,23.7578,13.0621,290.3)">
            </g>
            <text x="0px" y="290.3px" style="font-family:'Consolas', monospace;font-size:23.758px;">G</text>
        </g>
        <g transform="matrix(0.84183,0,0,0.84183,566.828,54.9193)">
            <text x="0px" y="290.3px" style="font-family:'Consolas', monospace;font-size:23.758px;">A</text>
            <g transform="matrix(13.8508,0,0,13.8508,20.6774,291.892)">
            </g>
            <text x="13.062px" y="291.892px" style="font-family:'Consolas-Italic', 'Consolas', monospace;font-style:italic;font-size:13.851px;">b</text>
        </g>
        <g transform="matrix(0.84183,0,0,0.84183,466.887,55.2537)">
            <text x="0px" y="290.3px" style="font-family:'Consolas', monospace;font-size:23.758px;">G</text>
            <g transform="matrix(13.8508,0,0,13.8508,20.6774,291.892)">
            </g>
            <text x="13.062px" y="291.892px" style="font-family:'Consolas-Italic', 'Consolas', monospace;font-style:italic;font-size:13.851px;">b</text>
        </g>
    </g>
    <g id="_4" serif:id="4" transform="matrix(1,0,0,1,-1.47237,-156.181)">
        <g transform="matrix(0.84183,0,0,0.84183,19.4419,54.5849)">
            <g transform="matrix(23.7578,0,0,23.7578,13.0621,290.3)">
            </g>
            <text x="0px" y="290.3px" style="font-family:'Consolas', monospace;font-size:23.758px;">D</text>
        </g>
        <g transform="matrix(0.84183,0,0,0.84183,66.4079,55.0072)">
            <text x="0px" y="290.3px" style="font-family:'Consolas', monospace;font-size:23.758px;">E</text>
            <g transform="matrix(13.8508,0,0,13.8508,20.6774,291.892)">
            </g>
            <text x="13.062px" y="291.892px" style="font-family:'Consolas-Italic', 'Consolas', monospace;font-style:italic;font-size:13.851px;">b</text>
        </g>
        <g transform="matrix(0.84183,0,0,0.84183,120.365,54.3384)">
            <g transform="matrix(23.7578,0,0,23.7578,13.0621,290.3)">
            </g>
            <text x="0px" y="290.3px" style="font-family:'Consolas', monospace;font-size:23.758px;">E</text>
        </g>
        <g transform="matrix(0.84183,0,0,0.84183,170.117,54.5849)">
            <g transform="matrix(23.7578,0,0,23.7578,13.0621,290.3)">
            </g>
            <text x="0px" y="290.3px" style="font-family:'Consolas', monospace;font-size:23.758px;">F</text>
        </g>
        <g transform="matrix(0.84183,0,0,0.84183,214.898,55.2537)">
            <text x="0px" y="290.3px" style="font-family:'Consolas', monospace;font-size:23.758px;">G</text>
            <g transform="matrix(13.8508,0,0,13.8508,20.6774,291.892)">
            </g>
            <text x="13.062px" y="291.892px" style="font-family:'Consolas-Italic', 'Consolas', monospace;font-style:italic;font-size:13.851px;">b</text>
        </g>
        <g transform="matrix(0.84183,0,0,0.84183,269.954,54.5849)">
            <g transform="matrix(23.7578,0,0,23.7578,13.0621,290.3)">
            </g>
            <text x="0px" y="290.3px" style="font-family:'Consolas', monospace;font-size:23.758px;">G</text>
        </g>
        <g transform="matrix(0.84183,0,0,0.84183,316.828,54.9193)">
            <text x="0px" y="290.3px" style="font-family:'Consolas', monospace;font-size:23.758px;">A</text>
            <g transform="matrix(13.8508,0,0,13.8508,20.6774,291.892)">
            </g>
            <text x="13.062px" y="291.892px" style="font-family:'Consolas-Italic', 'Consolas', monospace;font-style:italic;font-size:13.851px;">b</text>
        </g>
        <g transform="matrix(0.84183,0,0,0.84183,369.936,54.3384)">
            <g transform="matrix(23.7578,0,0,23.7578,13.0621,290.3)">
            </g>
            <text x="0px" y="290.3px" style="font-family:'Consolas', monospace;font-size:23.758px;">A</text>
        </g>
        <g transform="matrix(0.84183,0,0,0.84183,417.375,55.0072)">
            <text x="0px" y="290.3px" style="font-family:'Consolas', monospace;font-size:23.758px;">B</text>
            <g transform="matrix(13.8508,0,0,13.8508,20.6774,291.892)">
            </g>
            <text x="13.062px" y="291.892px" style="font-family:'Consolas-Italic', 'Consolas', monospace;font-style:italic;font-size:13.851px;">b</text>
        </g>
        <g transform="matrix(0.84183,0,0,0.84183,519.986,54.5849)">
            <g transform="matrix(23.7578,0,0,23.7578,13.0621,290.3)">
            </g>
            <text x="0px" y="290.3px" style="font-family:'Consolas', monospace;font-size:23.758px;">C</text>
        </g>
        <g transform="matrix(0.84183,0,0,0.84183,565.574,55.0072)">
            <text x="0px" y="290.3px" style="font-family:'Consolas', monospace;font-size:23.758px;">D</text>
            <g transform="matrix(13.8508,0,0,13.8508,20.6774,291.892)">
            </g>
            <text x="13.062px" y="291.892px" style="font-family:'Consolas-Italic', 'Consolas', monospace;font-style:italic;font-size:13.851px;">b</text>
        </g>
        <g transform="matrix(0.84183,0,0,0.84183,470.058,54.3384)">
            <g transform="matrix(23.7578,0,0,23.7578,13.0621,290.3)">
            </g>
            <text x="0px" y="290.3px" style="font-family:'Consolas', monospace;font-size:23.758px;">B</text>
        </g>
    </g>
    <g id="_3" serif:id="3" transform="matrix(1,0,0,1,-1.47237,-194.821)">
        <g transform="matrix(0.84183,0,0,0.84183,19.9106,54.3287)">
            <g transform="matrix(23.7578,0,0,23.7578,13.0621,290.3)">
            </g>
            <text x="0px" y="290.3px" style="font-family:'Consolas', monospace;font-size:23.758px;">G</text>
        </g>
        <g transform="matrix(0.84183,0,0,0.84183,66.3967,54.9974)">
            <text x="0px" y="290.3px" style="font-family:'Consolas', monospace;font-size:23.758px;">A</text>
            <g transform="matrix(13.8508,0,0,13.8508,20.6774,291.892)">
            </g>
            <text x="13.062px" y="291.892px" style="font-family:'Consolas-Italic', 'Consolas', monospace;font-style:italic;font-size:13.851px;">b</text>
        </g>
        <g transform="matrix(0.84183,0,0,0.84183,120.599,54.3287)">
            <g transform="matrix(23.7578,0,0,23.7578,13.0621,290.3)">
            </g>
            <text x="0px" y="290.3px" style="font-family:'Consolas', monospace;font-size:23.758px;">A</text>
        </g>
        <g transform="matrix(0.84183,0,0,0.84183,168.375,54.9974)">
            <text x="0px" y="290.3px" style="font-family:'Consolas', monospace;font-size:23.758px;">B</text>
            <g transform="matrix(13.8508,0,0,13.8508,20.6774,291.892)">
            </g>
            <text x="13.062px" y="291.892px" style="font-family:'Consolas-Italic', 'Consolas', monospace;font-style:italic;font-size:13.851px;">b</text>
        </g>
        <g transform="matrix(0.84183,0,0,0.84183,218.279,54.3287)">
            <g transform="matrix(23.7578,0,0,23.7578,13.0621,290.3)">
            </g>
            <text x="0px" y="290.3px" style="font-family:'Consolas', monospace;font-size:23.758px;">B</text>
        </g>
        <g transform="matrix(0.84183,0,0,0.84183,270.238,54.3287)">
            <g transform="matrix(23.7578,0,0,23.7578,13.0621,290.3)">
            </g>
            <text x="0px" y="290.3px" style="font-family:'Consolas', monospace;font-size:23.758px;">C</text>
        </g>
        <g transform="matrix(0.84183,0,0,0.84183,316.208,54.9193)">
            <text x="0px" y="290.3px" style="font-family:'Consolas', monospace;font-size:23.758px;">D</text>
            <g transform="matrix(13.8508,0,0,13.8508,20.6774,291.892)">
            </g>
            <text x="13.062px" y="291.892px" style="font-family:'Consolas-Italic', 'Consolas', monospace;font-style:italic;font-size:13.851px;">b</text>
        </g>
        <g transform="matrix(0.84183,0,0,0.84183,369.994,54.3287)">
            <g transform="matrix(23.7578,0,0,23.7578,13.0621,290.3)">
            </g>
            <text x="0px" y="290.3px" style="font-family:'Consolas', monospace;font-size:23.758px;">D</text>
        </g>
        <g transform="matrix(0.84183,0,0,0.84183,416.616,54.9974)">
            <text x="0px" y="290.3px" style="font-family:'Consolas', monospace;font-size:23.758px;">E</text>
            <g transform="matrix(13.8508,0,0,13.8508,20.6774,291.892)">
            </g>
            <text x="13.062px" y="291.892px" style="font-family:'Consolas-Italic', 'Consolas', monospace;font-style:italic;font-size:13.851px;">b</text>
        </g>
        <g transform="matrix(0.84183,0,0,0.84183,519.883,54.3287)">
            <g transform="matrix(23.7578,0,0,23.7578,13.0621,290.3)">
            </g>
            <text x="0px" y="290.3px" style="font-family:'Consolas', monospace;font-size:23.758px;">F</text>
        </g>
        <g transform="matrix(0.84183,0,0,0.84183,566.828,53.7124)">
            <text x="0px" y="290.3px" style="font-family:'Consolas', monospace;font-size:23.758px;">G</text>
            <g transform="matrix(13.8508,0,0,13.8508,20.6774,291.892)">
            </g>
            <text x="13.062px" y="291.892px" style="font-family:'Consolas-Italic', 'Consolas', monospace;font-style:italic;font-size:13.851px;">b</text>
        </g>
        <g transform="matrix(0.84183,0,0,0.84183,470.2,54.3287)">
            <g transform="matrix(23.7578,0,0,23.7578,13.0621,290.3)">
            </g>
            <text x="0px" y="290.3px" style="font-family:'Consolas', monospace;font-size:23.758px;">E</text>
        </g>
    </g>
    <g id="_2" serif:id="2" transform="matrix(1,0,0,1,-1.47237,-233.889)">
        <g transform="matrix(0.84183,0,0,0.84183,19.4419,54.3775)">
            <g transform="matrix(23.7578,0,0,23.7578,13.0621,290.3)">
            </g>
            <text x="0px" y="290.3px" style="font-family:'Consolas', monospace;font-size:23.758px;">B</text>
        </g>
        <g transform="matrix(0.84183,0,0,0.84183,69.9923,54.9974)">
            <g transform="matrix(23.7578,0,0,23.7578,13.0621,290.3)">
            </g>
            <text x="0px" y="290.3px" style="font-family:'Consolas', monospace;font-size:23.758px;">C</text>
        </g>
        <g transform="matrix(0.84183,0,0,0.84183,117.067,54.9681)">
            <text x="0px" y="290.3px" style="font-family:'Consolas', monospace;font-size:23.758px;">D</text>
            <g transform="matrix(13.8508,0,0,13.8508,20.6774,291.892)">
            </g>
            <text x="13.062px" y="291.892px" style="font-family:'Consolas-Italic', 'Consolas', monospace;font-style:italic;font-size:13.851px;">b</text>
        </g>
        <g transform="matrix(0.84183,0,0,0.84183,170.117,54.9974)">
            <g transform="matrix(23.7578,0,0,23.7578,13.0621,290.3)">
            </g>
            <text x="0px" y="290.3px" style="font-family:'Consolas', monospace;font-size:23.758px;">D</text>
        </g>
        <g transform="matrix(0.84183,0,0,0.84183,215.898,55.0463)">
            <text x="0px" y="290.3px" style="font-family:'Consolas', monospace;font-size:23.758px;">E</text>
            <g transform="matrix(13.8508,0,0,13.8508,20.6774,291.892)">
            </g>
            <text x="13.062px" y="291.892px" style="font-family:'Consolas-Italic', 'Consolas', monospace;font-style:italic;font-size:13.851px;">b</text>
        </g>
        <g transform="matrix(0.84183,0,0,0.84183,269.954,55.0463)">
            <g transform="matrix(23.7578,0,0,23.7578,13.0621,290.3)">
            </g>
            <text x="0px" y="290.3px" style="font-family:'Consolas', monospace;font-size:23.758px;">E</text>
        </g>
        <g transform="matrix(0.84183,0,0,0.84183,319.638,55.0463)">
            <g transform="matrix(23.7578,0,0,23.7578,13.0621,290.3)">
            </g>
            <text x="0px" y="290.3px" style="font-family:'Consolas', monospace;font-size:23.758px;">F</text>
        </g>
        <g transform="matrix(0.84183,0,0,0.84183,366.086,55.0463)">
            <text x="0px" y="290.3px" style="font-family:'Consolas', monospace;font-size:23.758px;">G</text>
            <g transform="matrix(13.8508,0,0,13.8508,20.6774,291.892)">
            </g>
            <text x="13.062px" y="291.892px" style="font-family:'Consolas-Italic', 'Consolas', monospace;font-style:italic;font-size:13.851px;">b</text>
        </g>
        <g transform="matrix(0.84183,0,0,0.84183,420.466,55.0463)">
            <g transform="matrix(23.7578,0,0,23.7578,13.0621,290.3)">
            </g>
            <text x="0px" y="290.3px" style="font-family:'Consolas', monospace;font-size:23.758px;">G</text>
        </g>
        <g transform="matrix(0.84183,0,0,0.84183,519.986,55.0463)">
            <g transform="matrix(23.7578,0,0,23.7578,13.0621,290.3)">
            </g>
            <text x="0px" y="290.3px" style="font-family:'Consolas', monospace;font-size:23.758px;">A</text>
        </g>
        <g transform="matrix(0.84183,0,0,0.84183,567.375,55.0463)">
            <text x="0px" y="290.3px" style="font-family:'Consolas', monospace;font-size:23.758px;">B</text>
            <g transform="matrix(13.8508,0,0,13.8508,20.6774,291.892)">
            </g>
            <text x="13.062px" y="291.892px" style="font-family:'Consolas-Italic', 'Consolas', monospace;font-style:italic;font-size:13.851px;">b</text>
        </g>
        <g transform="matrix(0.84183,0,0,0.84183,466.887,55.0463)">
            <text x="0px" y="290.3px" style="font-family:'Consolas', monospace;font-size:23.758px;">A</text>
            <g transform="matrix(13.8508,0,0,13.8508,20.6774,291.892)">
            </g>
            <text x="13.062px" y="291.892px" style="font-family:'Consolas-Italic', 'Consolas', monospace;font-style:italic;font-size:13.851px;">b</text>
        </g>
    </g>
    <g id="_1" serif:id="1" transform="matrix(1,0,0,1,-1.47237,-272.97)">
        <g transform="matrix(0.84183,0,0,0.84183,19.5835,54.441)">
            <g transform="matrix(23.7578,0,0,23.7578,13.0621,290.3)">
            </g>
            <text x="0px" y="290.3px" style="font-family:'Consolas', monospace;font-size:23.758px;">E</text>
        </g>
        <g transform="matrix(0.84183,0,0,0.84183,69.6994,54.441)">
            <g transform="matrix(23.7578,0,0,23.7578,13.0621,290.3)">
            </g>
            <text x="0px" y="290.3px" style="font-family:'Consolas', monospace;font-size:23.758px;">F</text>
        </g>
        <g transform="matrix(0.84183,0,0,0.84183,116.515,55.1097)">
            <text x="0px" y="290.3px" style="font-family:'Consolas', monospace;font-size:23.758px;">G</text>
            <g transform="matrix(13.8508,0,0,13.8508,20.6774,291.892)">
            </g>
            <text x="13.062px" y="291.892px" style="font-family:'Consolas-Italic', 'Consolas', monospace;font-style:italic;font-size:13.851px;">b</text>
        </g>
        <g transform="matrix(0.84183,0,0,0.84183,170.527,54.441)">
            <g transform="matrix(23.7578,0,0,23.7578,13.0621,290.3)">
            </g>
            <text x="0px" y="290.3px" style="font-family:'Consolas', monospace;font-size:23.758px;">G</text>
        </g>
        <g transform="matrix(0.84183,0,0,0.84183,216.108,55.0218)">
            <text x="0px" y="290.3px" style="font-family:'Consolas', monospace;font-size:23.758px;">A</text>
            <g transform="matrix(13.8508,0,0,13.8508,20.6774,291.892)">
            </g>
            <text x="13.062px" y="291.892px" style="font-family:'Consolas-Italic', 'Consolas', monospace;font-style:italic;font-size:13.851px;">b</text>
        </g>
        <g transform="matrix(0.84183,0,0,0.84183,270.047,54.441)">
            <g transform="matrix(23.7578,0,0,23.7578,13.0621,290.3)">
            </g>
            <text x="0px" y="290.3px" style="font-family:'Consolas', monospace;font-size:23.758px;">A</text>
        </g>
        <g transform="matrix(0.84183,0,0,0.84183,317.375,55.1097)">
            <text x="0px" y="290.3px" style="font-family:'Consolas', monospace;font-size:23.758px;">B</text>
            <g transform="matrix(13.8508,0,0,13.8508,20.6774,291.892)">
            </g>
            <text x="13.062px" y="291.892px" style="font-family:'Consolas-Italic', 'Consolas', monospace;font-style:italic;font-size:13.851px;">b</text>
        </g>
        <g transform="matrix(0.84183,0,0,0.84183,369.936,55.1097)">
            <g transform="matrix(23.7578,0,0,23.7578,13.0621,290.3)">
            </g>
            <text x="0px" y="290.3px" style="font-family:'Consolas', monospace;font-size:23.758px;">B</text>
        </g>
        <g transform="matrix(0.84183,0,0,0.84183,420.422,55.0463)">
            <g transform="matrix(23.7578,0,0,23.7578,13.0621,290.3)">
            </g>
            <text x="0px" y="290.3px" style="font-family:'Consolas', monospace;font-size:23.758px;">C</text>
        </g>
        <g transform="matrix(0.84183,0,0,0.84183,519.81,54.441)">
            <g transform="matrix(23.7578,0,0,23.7578,13.0621,290.3)">
            </g>
            <text x="0px" y="290.3px" style="font-family:'Consolas', monospace;font-size:23.758px;">D</text>
        </g>
        <g transform="matrix(0.84183,0,0,0.84183,566.408,55.1097)">
            <text x="0px" y="290.3px" style="font-family:'Consolas', monospace;font-size:23.758px;">E</text>
            <g transform="matrix(13.8508,0,0,13.8508,20.6774,291.892)">
            </g>
            <text x="13.062px" y="291.892px" style="font-family:'Consolas-Italic', 'Consolas', monospace;font-style:italic;font-size:13.851px;">b</text>
        </g>
        <g transform="matrix(0.84183,0,0,0.84183,466.76,55.1097)">
            <text x="0px" y="290.3px" style="font-family:'Consolas', monospace;font-size:23.758px;">D</text>
            <g transform="matrix(13.8508,0,0,13.8508,20.6774,291.892)">
            </g>
            <text x="13.062px" y="291.892px" style="font-family:'Consolas-Italic', 'Consolas', monospace;font-style:italic;font-size:13.851px;">b</text>
        </g>
    </g>
</svg>
